<?xml version="1.0" encoding="UTF-8" standalone="no"?>
<!-- Created with Inkscape (http://www.inkscape.org/) -->
<svg
   xmlns:dc="http://purl.org/dc/elements/1.1/"
   xmlns:cc="http://creativecommons.org/ns#"
   xmlns:rdf="http://www.w3.org/1999/02/22-rdf-syntax-ns#"
   xmlns:svg="http://www.w3.org/2000/svg"
   xmlns="http://www.w3.org/2000/svg"
   xmlns:xlink="http://www.w3.org/1999/xlink"
   xmlns:sodipodi="http://sodipodi.sourceforge.net/DTD/sodipodi-0.dtd"
   xmlns:inkscape="http://www.inkscape.org/namespaces/inkscape"
   width="1600"
   height="580"
   id="svg4819"
   sodipodi:version="0.32"
   inkscape:version="0.46"
   version="1.0"
   sodipodi:docname="background.svg"
   inkscape:output_extension="org.inkscape.output.svg.inkscape"
   inkscape:export-filename="/home/yh/mn/profiles/managingnews/themes/jake/images/background.png"
   inkscape:export-xdpi="90"
   inkscape:export-ydpi="90">
  <defs
     id="defs4821">
    <linearGradient
       inkscape:collect="always"
       id="linearGradient9492">
      <stop
         style="stop-color:#202020;stop-opacity:1;"
         offset="0"
         id="stop9494" />
      <stop
         style="stop-color:#202020;stop-opacity:0;"
         offset="1"
         id="stop9496" />
    </linearGradient>
    <linearGradient
       inkscape:collect="always"
       id="linearGradient9506">
      <stop
         style="stop-color:#282828;stop-opacity:1;"
         offset="0"
         id="stop9508" />
      <stop
         style="stop-color:#181818;stop-opacity:1"
         offset="1"
         id="stop9510" />
    </linearGradient>
    <linearGradient
       inkscape:collect="always"
       xlink:href="#linearGradient5212"
       id="linearGradient7222"
       x1="1214.5"
       y1="385"
       x2="1214.5"
       y2="412.50455"
       gradientUnits="userSpaceOnUse" />
    <linearGradient
       id="linearGradient5212">
      <stop
         style="stop-color:#000000;stop-opacity:0.1254902"
         offset="0"
         id="stop5214" />
      <stop
         style="stop-color:#000000;stop-opacity:0"
         offset="1"
         id="stop5216" />
    </linearGradient>
    <linearGradient
       inkscape:collect="always"
       id="linearGradient8242">
      <stop
         style="stop-color:#282828;stop-opacity:1;"
         offset="0"
         id="stop8244" />
      <stop
         style="stop-color:#282828;stop-opacity:0;"
         offset="1"
         id="stop8246" />
    </linearGradient>
    <linearGradient
       inkscape:collect="always"
       id="linearGradient9416">
      <stop
         style="stop-color:#181818;stop-opacity:1;"
         offset="0"
         id="stop9418" />
      <stop
         style="stop-color:#181818;stop-opacity:0;"
         offset="1"
         id="stop9420" />
    </linearGradient>
    <inkscape:perspective
       sodipodi:type="inkscape:persp3d"
       inkscape:vp_x="0 : 526.18109 : 1"
       inkscape:vp_y="0 : 1000 : 0"
       inkscape:vp_z="744.09448 : 526.18109 : 1"
       inkscape:persp3d-origin="372.04724 : 350.78739 : 1"
       id="perspective4827" />
    <linearGradient
       inkscape:collect="always"
       xlink:href="#linearGradient9416"
       id="linearGradient6627"
       gradientUnits="userSpaceOnUse"
       gradientTransform="translate(-1610,0)"
       x1="1489"
       y1="517"
       x2="1506"
       y2="517" />
    <linearGradient
       inkscape:collect="always"
       xlink:href="#linearGradient8242"
       id="linearGradient6768"
       gradientUnits="userSpaceOnUse"
       gradientTransform="translate(-1610,0)"
       x1="1051.6271"
       y1="517.1983"
       x2="1029.9855"
       y2="517.1983" />
    <linearGradient
       inkscape:collect="always"
       xlink:href="#linearGradient5212"
       id="linearGradient6783"
       gradientUnits="userSpaceOnUse"
       gradientTransform="matrix(-1,0,0,1,1607,0)"
       x1="1221.5"
       y1="467"
       x2="1221.5"
       y2="477.7139" />
    <linearGradient
       inkscape:collect="always"
       xlink:href="#linearGradient5212"
       id="linearGradient7127"
       gradientUnits="userSpaceOnUse"
       gradientTransform="matrix(-1,0,0,1,2390,105)"
       x1="1281.2775"
       y1="360.15814"
       x2="1281.2775"
       y2="379.28915" />
    <linearGradient
       inkscape:collect="always"
       xlink:href="#linearGradient5212"
       id="linearGradient7294"
       gradientUnits="userSpaceOnUse"
       gradientTransform="matrix(-1,0,0,1,2390,105)"
       x1="1045.8109"
       y1="340.00562"
       x2="1045.8109"
       y2="380.34946" />
    <linearGradient
       inkscape:collect="always"
       xlink:href="#linearGradient9506"
       id="linearGradient7475"
       gradientUnits="userSpaceOnUse"
       gradientTransform="translate(-1610,0)"
       x1="1465.0024"
       y1="542.875"
       x2="1457.974"
       y2="542.875" />
    <linearGradient
       inkscape:collect="always"
       xlink:href="#linearGradient9492"
       id="linearGradient7478"
       gradientUnits="userSpaceOnUse"
       gradientTransform="matrix(1.1851852,0,0,1,-1908.1481,0)"
       x1="1489.3939"
       y1="543.1084"
       x2="1483.4375"
       y2="545" />
    <clipPath
       clipPathUnits="userSpaceOnUse"
       id="clipPath3892">
      <rect
         style="opacity:1;fill:#ffffff;fill-opacity:0.1254902;fill-rule:nonzero;stroke:none;stroke-width:1;stroke-linecap:square;stroke-linejoin:miter;marker:none;marker-start:none;marker-mid:none;marker-end:none;stroke-miterlimit:4;stroke-dasharray:none;stroke-dashoffset:4;stroke-opacity:1;visibility:visible;display:inline;overflow:visible;enable-background:accumulate"
         id="rect3894"
         width="210"
         height="210"
         x="0"
         y="0" />
    </clipPath>
  </defs>
  <sodipodi:namedview
     id="base"
     pagecolor="#ffffff"
     bordercolor="#666666"
     borderopacity="1.0"
     gridtolerance="10000"
     guidetolerance="5"
     objecttolerance="5"
     inkscape:pageopacity="0.0"
     inkscape:pageshadow="2"
     inkscape:zoom="1.5625"
     inkscape:cx="27.497622"
     inkscape:cy="492.92822"
     inkscape:document-units="px"
     inkscape:current-layer="layer3"
     showgrid="false">
    <inkscape:grid
       type="xygrid"
       id="grid6607"
       visible="true"
       enabled="true"
       units="" />
  </sodipodi:namedview>
  <metadata
     id="metadata4824">
    <rdf:RDF>
      <cc:Work
         rdf:about="">
        <dc:format>image/svg+xml</dc:format>
        <dc:type
           rdf:resource="http://purl.org/dc/dcmitype/StillImage" />
      </cc:Work>
    </rdf:RDF>
  </metadata>
  <g
     inkscape:groupmode="layer"
     id="layer2"
     inkscape:label="Root"
     style="display:none"
     sodipodi:insensitive="true">
    <rect
       inkscape:export-ydpi="90"
       inkscape:export-xdpi="90"
       inkscape:export-filename="/Users/saman/Desktop/mn2_illo_wip2.png"
       y="-580"
       x="-1600"
       height="580"
       width="1600"
       id="rect9109"
       style="fill:#b4e2df;fill-opacity:1;stroke:none;stroke-width:1;stroke-linecap:square;stroke-linejoin:miter;stroke-miterlimit:4;stroke-dasharray:none;stroke-dashoffset:4;stroke-opacity:1;display:inline"
       transform="scale(-1,-1)" />
  </g>
  <g
     inkscape:label="Layer 1"
     inkscape:groupmode="layer"
     id="layer1"
     style="display:inline">
    <path
       style="fill:#000000;fill-opacity:0.09411765;stroke:none;stroke-width:1;stroke-linecap:square;stroke-linejoin:miter;stroke-miterlimit:4;stroke-dashoffset:4;stroke-opacity:1;display:inline"
       d="M 1254,211 L 1254,220 L 1240,220 L 1240,256 L 1252,256 L 1260,264 L 1260,270 L 1265,270 L 1265,350 L 1290,350 L 1290,220 L 1269,220 L 1269,211 L 1254,211 z M 1195,235 L 1195,252 L 1215,252 L 1215,235 L 1195,235 z M 1195,253 L 1195,255 L 1215,255 L 1215,253 L 1195,253 z M 1565,255 L 1565,272 L 1585,272 L 1585,255 L 1565,255 z M 1194,256 L 1194,259 L 1195,259 L 1195,274 L 1197,274 L 1197,259 L 1213,259 L 1213,274 L 1215,274 L 1215,259 L 1216,259 L 1216,256 L 1194,256 z M 1240,261 L 1235,266 L 1235,275 L 1185,275 L 1185,495 L 1185,515 L 1185,530.59375 L 1220,530.59375 L 1225,535.53125 L 1185,535.53125 L 1165,535.53125 L 1165,515 L 1165,495 L 1165,390 L 1142.5,370 L 1120,390 L 1120,495 L 1080,495 L 1080,435 L 1070,435 L 1070,410 L 1065,410 L 1065,435 L 1050,435 L 1050,495 L 990,495 L 990,515.75 L 1010,515.75 L 1015,520.6875 L 990,520.6875 L 985,520.6875 L 985,520 L 985,515.75 L 985,495 L 985,445 L 945,475 L 945,495 L 0,495 L 0,580 L 1095,580 L 1095,525 L 1055,525 L 1060,520 L 1100,520 L 1100,545 L 1500,545 L 1500,520 L 1540,520 L 1545,525 L 1505,525 L 1505,580 L 1600,580 L 1600,495 L 1590,495 L 1590,450 L 1560,450 L 1560,495 L 1560,510 L 1570,510 L 1565,515 L 1555,515 L 1555,495 L 1555,380 L 1510,355 L 1510,440 L 1525,440 L 1525,475 L 1520,470 L 1520,445 L 1510,445 L 1505,445 L 1505,380 L 1490,380 L 1490,350 L 1485,350 L 1485,380 L 1475,380 L 1475,350 L 1470,350 L 1470,380 L 1450,380 L 1450,495 L 1450,505 L 1485,505 L 1490,510 L 1425,510 L 1425,505 L 1425,495 L 1425,490 L 1425,470 L 1410,458 L 1400,450 L 1400,515 L 1395,510 L 1340,510 L 1340,515 L 1335,510 L 1335,495 L 1335,490 L 1335,435 L 1320,435 L 1315,435 L 1315,405 L 1310,405 L 1310,435 L 1300,435 L 1282,435 L 1245,435 L 1245,495 L 1240,490 L 1240,430 L 1260,430 L 1260,395 L 1230,395 L 1225,390 L 1260,390 L 1265,390 L 1265,395 L 1265,430 L 1300,430 L 1300,355 L 1210,355 L 1205,350 L 1260,350 L 1260,275 L 1255,275 L 1255,266 L 1250,261 L 1240,261 z M 1565,273 L 1565,275 L 1585,275 L 1585,273 L 1565,273 z M 1564,276 L 1564,279 L 1565,279 L 1565,294 L 1567,294 L 1567,279 L 1583,279 L 1583,294 L 1585,294 L 1585,279 L 1586,279 L 1586,276 L 1564,276 z M 1220,280 L 1225,280 L 1225,285 L 1220,285 L 1220,280 z M 1230,280 L 1235,280 L 1235,285 L 1230,285 L 1230,280 z M 1240,280 L 1245,280 L 1245,285 L 1240,285 L 1240,280 z M 1250,280 L 1255,280 L 1255,285 L 1250,285 L 1250,280 z M 1220,290 L 1225,290 L 1225,295 L 1220,295 L 1220,290 z M 1230,290 L 1235,290 L 1235,295 L 1230,295 L 1230,290 z M 1240,290 L 1245,290 L 1245,295 L 1240,295 L 1240,290 z M 1250,290 L 1255,290 L 1255,295 L 1250,295 L 1250,290 z M 1530,295 L 1530,360 L 1560,375 L 1560,425 L 1570,425 L 1570,405 L 1590,405 L 1590,295 L 1530,295 z M 1220,300 L 1225,300 L 1225,305 L 1220,305 L 1220,300 z M 1230,300 L 1235,300 L 1235,305 L 1230,305 L 1230,300 z M 1240,300 L 1245,300 L 1245,305 L 1240,305 L 1240,300 z M 1250,300 L 1255,300 L 1255,305 L 1250,305 L 1250,300 z M 1540,300 L 1545,300 L 1545,305 L 1540,305 L 1540,300 z M 1550,300 L 1555,300 L 1555,305 L 1550,305 L 1550,300 z M 1560,300 L 1565,300 L 1565,305 L 1560,305 L 1560,300 z M 1570,300 L 1575,300 L 1575,305 L 1570,305 L 1570,300 z M 1580,300 L 1585,300 L 1585,305 L 1580,305 L 1580,300 z M 1220,310 L 1225,310 L 1225,315 L 1220,315 L 1220,310 z M 1230,310 L 1235,310 L 1235,315 L 1230,315 L 1230,310 z M 1240,310 L 1245,310 L 1245,315 L 1240,315 L 1240,310 z M 1250,310 L 1255,310 L 1255,315 L 1250,315 L 1250,310 z M 1540,310 L 1545,310 L 1545,315 L 1540,315 L 1540,310 z M 1550,310 L 1555,310 L 1555,315 L 1550,315 L 1550,310 z M 1560,310 L 1565,310 L 1565,315 L 1560,315 L 1560,310 z M 1570,310 L 1575,310 L 1575,315 L 1570,315 L 1570,310 z M 1580,310 L 1585,310 L 1585,315 L 1580,315 L 1580,310 z M 1390,311 L 1390,320 L 1355,320 L 1355,495 L 1395,495 L 1395,445 L 1400,445 L 1410,453 L 1410,320 L 1405,320 L 1405,311 L 1390,311 z M 1220,320 L 1225,320 L 1225,325 L 1220,325 L 1220,320 z M 1230,320 L 1235,320 L 1235,325 L 1230,325 L 1230,320 z M 1240,320 L 1245,320 L 1245,325 L 1240,325 L 1240,320 z M 1250,320 L 1255,320 L 1255,325 L 1250,325 L 1250,320 z M 1540,320 L 1545,320 L 1545,325 L 1540,325 L 1540,320 z M 1550,320 L 1555,320 L 1555,325 L 1550,325 L 1550,320 z M 1560,320 L 1565,320 L 1565,325 L 1560,325 L 1560,320 z M 1570,320 L 1575,320 L 1575,325 L 1570,325 L 1570,320 z M 1580,320 L 1585,320 L 1585,325 L 1580,325 L 1580,320 z M 1360,325 L 1365,325 L 1365,330 L 1360,330 L 1360,325 z M 1370,325 L 1375,325 L 1375,330 L 1370,330 L 1370,325 z M 1380,325 L 1385,325 L 1385,330 L 1380,330 L 1380,325 z M 1390,325 L 1395,325 L 1395,330 L 1390,330 L 1390,325 z M 1400,325 L 1405,325 L 1405,330 L 1400,330 L 1400,325 z M 1220,330 L 1225,330 L 1225,335 L 1220,335 L 1220,330 z M 1230,330 L 1235,330 L 1235,335 L 1230,335 L 1230,330 z M 1240,330 L 1245,330 L 1245,335 L 1240,335 L 1240,330 z M 1250,330 L 1255,330 L 1255,335 L 1250,335 L 1250,330 z M 1540,330 L 1545,330 L 1545,335 L 1540,335 L 1540,330 z M 1550,330 L 1555,330 L 1555,335 L 1550,335 L 1550,330 z M 1560,330 L 1565,330 L 1565,335 L 1560,335 L 1560,330 z M 1570,330 L 1575,330 L 1575,335 L 1570,335 L 1570,330 z M 1580,330 L 1585,330 L 1585,335 L 1580,335 L 1580,330 z M 1360,335 L 1365,335 L 1365,340 L 1360,340 L 1360,335 z M 1370,335 L 1375,335 L 1375,340 L 1370,340 L 1370,335 z M 1380,335 L 1385,335 L 1385,340 L 1380,340 L 1380,335 z M 1390,335 L 1395,335 L 1395,340 L 1390,340 L 1390,335 z M 1400,335 L 1405,335 L 1405,340 L 1400,340 L 1400,335 z M 1220,340 L 1225,340 L 1225,345 L 1220,345 L 1220,340 z M 1230,340 L 1235,340 L 1235,345 L 1230,345 L 1230,340 z M 1240,340 L 1245,340 L 1245,345 L 1240,345 L 1240,340 z M 1250,340 L 1255,340 L 1255,345 L 1250,345 L 1250,340 z M 1558.75,340 L 1574.25,340 C 1579.6515,340 1584,344.3485 1584,349.75 L 1584,355.25 C 1584,360.39798 1580.0468,364.55538 1575,364.9375 L 1575,365 C 1575,370 1575.8775,373.19722 1579,375 C 1567,375 1567,368 1567,365 L 1558.75,365 C 1553.3485,365 1549,360.6515 1549,355.25 L 1549,349.75 C 1549,344.3485 1553.3485,340 1558.75,340 z M 1360,345 L 1365,345 L 1365,350 L 1360,350 L 1360,345 z M 1370,345 L 1375,345 L 1375,350 L 1370,350 L 1370,345 z M 1380,345 L 1385,345 L 1385,350 L 1380,350 L 1380,345 z M 1390,345 L 1395,345 L 1395,350 L 1390,350 L 1390,345 z M 1400,345 L 1405,345 L 1405,350 L 1400,350 L 1400,345 z M 1360,355 L 1365,355 L 1365,360 L 1360,360 L 1360,355 z M 1370,355 L 1375,355 L 1375,360 L 1370,360 L 1370,355 z M 1380,355 L 1385,355 L 1385,360 L 1380,360 L 1380,355 z M 1390,355 L 1395,355 L 1395,360 L 1390,360 L 1390,355 z M 1400,355 L 1405,355 L 1405,360 L 1400,360 L 1400,355 z M 1360,365 L 1365,365 L 1365,370 L 1360,370 L 1360,365 z M 1370,365 L 1375,365 L 1375,370 L 1370,370 L 1370,365 z M 1380,365 L 1385,365 L 1385,370 L 1380,370 L 1380,365 z M 1390,365 L 1395,365 L 1395,370 L 1390,370 L 1390,365 z M 1400,365 L 1405,365 L 1405,370 L 1400,370 L 1400,365 z M 1360,375 L 1365,375 L 1365,380 L 1360,380 L 1360,375 z M 1370,375 L 1375,375 L 1375,380 L 1370,380 L 1370,375 z M 1380,375 L 1385,375 L 1385,380 L 1380,380 L 1380,375 z M 1390,375 L 1395,375 L 1395,380 L 1390,380 L 1390,375 z M 1400,375 L 1405,375 L 1405,380 L 1400,380 L 1400,375 z M 1360,385 L 1365,385 L 1365,390 L 1360,390 L 1360,385 z M 1370,385 L 1375,385 L 1375,390 L 1370,390 L 1370,385 z M 1380,385 L 1385,385 L 1385,390 L 1380,390 L 1380,385 z M 1390,385 L 1395,385 L 1395,390 L 1390,390 L 1390,385 z M 1400,385 L 1405,385 L 1405,390 L 1400,390 L 1400,385 z M 1455,385 L 1460,385 L 1460,390 L 1455,390 L 1455,385 z M 1465,385 L 1470,385 L 1470,390 L 1465,390 L 1465,385 z M 1475,385 L 1480,385 L 1480,390 L 1475,390 L 1475,385 z M 1515,385 L 1520,385 L 1520,390 L 1515,390 L 1515,385 z M 1525,385 L 1530,385 L 1530,390 L 1525,390 L 1525,385 z M 1535,385 L 1540,385 L 1540,390 L 1535,390 L 1535,385 z M 1545,385 L 1550,385 L 1550,390 L 1545,390 L 1545,385 z M 1360,395 L 1365,395 L 1365,400 L 1360,400 L 1360,395 z M 1370,395 L 1375,395 L 1375,400 L 1370,400 L 1370,395 z M 1380,395 L 1385,395 L 1385,400 L 1380,400 L 1380,395 z M 1390,395 L 1395,395 L 1395,400 L 1390,400 L 1390,395 z M 1400,395 L 1405,395 L 1405,400 L 1400,400 L 1400,395 z M 1455,395 L 1460,395 L 1460,400 L 1455,400 L 1455,395 z M 1465,395 L 1470,395 L 1470,400 L 1465,400 L 1465,395 z M 1475,395 L 1480,395 L 1480,400 L 1475,400 L 1475,395 z M 1515,395 L 1520,395 L 1520,400 L 1515,400 L 1515,395 z M 1525,395 L 1530,395 L 1530,400 L 1525,400 L 1525,395 z M 1535,395 L 1540,395 L 1540,400 L 1535,400 L 1535,395 z M 1545,395 L 1550,395 L 1550,400 L 1545,400 L 1545,395 z M 1130,400 L 1135,400 L 1135,405 L 1130,405 L 1130,400 z M 1140,400 L 1145,400 L 1145,405 L 1140,405 L 1140,400 z M 1150,400 L 1155,400 L 1155,405 L 1150,405 L 1150,400 z M 1240,400 L 1245,400 L 1245,405 L 1240,405 L 1240,400 z M 1250,400 L 1255,400 L 1255,405 L 1250,405 L 1250,400 z M 1360,405 L 1365,405 L 1365,410 L 1360,410 L 1360,405 z M 1370,405 L 1375,405 L 1375,410 L 1370,410 L 1370,405 z M 1380,405 L 1385,405 L 1385,410 L 1380,410 L 1380,405 z M 1455,405 L 1460,405 L 1460,410 L 1455,410 L 1455,405 z M 1465,405 L 1470,405 L 1470,410 L 1465,410 L 1465,405 z M 1475,405 L 1480,405 L 1480,410 L 1475,410 L 1475,405 z M 1515,405 L 1520,405 L 1520,410 L 1515,410 L 1515,405 z M 1525,405 L 1530,405 L 1530,410 L 1525,410 L 1525,405 z M 1535,405 L 1540,405 L 1540,410 L 1535,410 L 1535,405 z M 1545,405 L 1550,405 L 1550,410 L 1545,410 L 1545,405 z M 1130,410 L 1135,410 L 1135,415 L 1130,415 L 1130,410 z M 1140,410 L 1145,410 L 1145,415 L 1140,415 L 1140,410 z M 1150,410 L 1155,410 L 1155,415 L 1150,415 L 1150,410 z M 1240,410 L 1245,410 L 1245,415 L 1240,415 L 1240,410 z M 1250,410 L 1255,410 L 1255,415 L 1250,415 L 1250,410 z M 1575,410 L 1575,445 L 1595,445 L 1595,490 L 1600,490 L 1600,410 L 1575,410 z M 1360,415 L 1365,415 L 1365,420 L 1360,420 L 1360,415 z M 1370,415 L 1375,415 L 1375,420 L 1370,420 L 1370,415 z M 1380,415 L 1385,415 L 1385,420 L 1380,420 L 1380,415 z M 1515,415 L 1520,415 L 1520,420 L 1515,420 L 1515,415 z M 1525,415 L 1530,415 L 1530,420 L 1525,420 L 1525,415 z M 1535,415 L 1540,415 L 1540,420 L 1535,420 L 1535,415 z M 1545,415 L 1550,415 L 1550,420 L 1545,420 L 1545,415 z M 1130,420 L 1135,420 L 1135,425 L 1130,425 L 1130,420 z M 1140,420 L 1145,420 L 1145,425 L 1140,425 L 1140,420 z M 1150,420 L 1155,420 L 1155,425 L 1150,425 L 1150,420 z M 1240,420 L 1245,420 L 1245,425 L 1240,425 L 1240,420 z M 1250,420 L 1255,420 L 1255,425 L 1250,425 L 1250,420 z M 1360,425 L 1365,425 L 1365,430 L 1360,430 L 1360,425 z M 1370,425 L 1375,425 L 1375,430 L 1370,430 L 1370,425 z M 1380,425 L 1385,425 L 1385,430 L 1380,430 L 1380,425 z M 1515,425 L 1520,425 L 1520,430 L 1515,430 L 1515,425 z M 1525,425 L 1530,425 L 1530,430 L 1525,430 L 1525,425 z M 1535,425 L 1540,425 L 1540,430 L 1535,430 L 1535,425 z M 1545,425 L 1550,425 L 1550,430 L 1545,430 L 1545,425 z M 1130,430 L 1135,430 L 1135,435 L 1130,435 L 1130,430 z M 1140,430 L 1145,430 L 1145,435 L 1140,435 L 1140,430 z M 1150,430 L 1155,430 L 1155,435 L 1150,435 L 1150,430 z M 1360,435 L 1365,435 L 1365,440 L 1360,440 L 1360,435 z M 1370,435 L 1375,435 L 1375,440 L 1370,440 L 1370,435 z M 1380,435 L 1385,435 L 1385,440 L 1380,440 L 1380,435 z M 1535,435 L 1540,435 L 1540,440 L 1535,440 L 1535,435 z M 1545,435 L 1550,435 L 1550,440 L 1545,440 L 1545,435 z M 1060,440 L 1065,440 L 1065,445 L 1060,445 L 1060,440 z M 1070,440 L 1075,440 L 1075,445 L 1070,445 L 1070,440 z M 1130,440 L 1135,440 L 1135,445 L 1130,445 L 1130,440 z M 1140,440 L 1145,440 L 1145,445 L 1140,445 L 1140,440 z M 1150,440 L 1155,440 L 1155,445 L 1150,445 L 1150,440 z M 1285,440 L 1290,440 L 1290,445 L 1285,445 L 1285,440 z M 1295,440 L 1300,440 L 1300,445 L 1295,445 L 1295,440 z M 1305,440 L 1310,440 L 1310,445 L 1305,445 L 1305,440 z M 1315,440 L 1320,440 L 1320,445 L 1315,445 L 1315,440 z M 1325,440 L 1330,440 L 1330,445 L 1325,445 L 1325,440 z M 1415,440 L 1415,457 L 1425,465 L 1430,469 L 1430,490 L 1430,495 L 1430,505 L 1445,505 L 1445,495 L 1445,490 L 1445,440 L 1415,440 z M 1360,445 L 1365,445 L 1365,450 L 1360,450 L 1360,445 z M 1370,445 L 1375,445 L 1375,450 L 1370,450 L 1370,445 z M 1380,445 L 1385,445 L 1385,450 L 1380,450 L 1380,445 z M 1535,445 L 1540,445 L 1540,450 L 1535,450 L 1535,445 z M 1545,445 L 1550,445 L 1550,450 L 1545,450 L 1545,445 z M 1060,450 L 1065,450 L 1065,455 L 1060,455 L 1060,450 z M 1070,450 L 1075,450 L 1075,455 L 1070,455 L 1070,450 z M 1130,450 L 1135,450 L 1135,455 L 1130,455 L 1130,450 z M 1140,450 L 1145,450 L 1145,455 L 1140,455 L 1140,450 z M 1150,450 L 1155,450 L 1155,455 L 1150,455 L 1150,450 z M 1285,450 L 1290,450 L 1290,455 L 1285,455 L 1285,450 z M 1295,450 L 1300,450 L 1300,455 L 1295,455 L 1295,450 z M 1305,450 L 1310,450 L 1310,455 L 1305,455 L 1305,450 z M 1315,450 L 1320,450 L 1320,455 L 1315,455 L 1315,450 z M 1325,450 L 1330,450 L 1330,455 L 1325,455 L 1325,450 z M 1467.75,450 L 1493.25,450 C 1498.6515,450 1503,454.3485 1503,459.75 L 1503,475.25 C 1503,480.6515 1498.6515,485 1493.25,485 L 1491,485 C 1491,490 1491.8775,493.19722 1495,495 C 1483,495 1483,488 1483,485 L 1467.75,485 C 1462.3485,485 1458,480.6515 1458,475.25 L 1458,459.75 C 1458,454.3485 1462.3485,450 1467.75,450 z M 1360,455 L 1365,455 L 1365,460 L 1360,460 L 1360,455 z M 1370,455 L 1375,455 L 1375,460 L 1370,460 L 1370,455 z M 1380,455 L 1385,455 L 1385,460 L 1380,460 L 1380,455 z M 1425,455 L 1430,455 L 1430,460 L 1425,460 L 1425,455 z M 1435,455 L 1440,455 L 1440,460 L 1435,460 L 1435,455 z M 1535,455 L 1540,455 L 1540,460 L 1535,460 L 1535,455 z M 1545,455 L 1550,455 L 1550,460 L 1545,460 L 1545,455 z M 1570,455 L 1575,455 L 1575,460 L 1570,460 L 1570,455 z M 1580,455 L 1585,455 L 1585,460 L 1580,460 L 1580,455 z M 1060,460 L 1065,460 L 1065,465 L 1060,465 L 1060,460 z M 1070,460 L 1075,460 L 1075,465 L 1070,465 L 1070,460 z M 1130,460 L 1135,460 L 1135,465 L 1130,465 L 1130,460 z M 1140,460 L 1145,460 L 1145,465 L 1140,465 L 1140,460 z M 1150,460 L 1155,460 L 1155,465 L 1150,465 L 1150,460 z M 1285,460 L 1290,460 L 1290,465 L 1285,465 L 1285,460 z M 1295,460 L 1300,460 L 1300,465 L 1295,465 L 1295,460 z M 1305,460 L 1310,460 L 1310,465 L 1305,465 L 1305,460 z M 1315,460 L 1320,460 L 1320,465 L 1315,465 L 1315,460 z M 1325,460 L 1330,460 L 1330,465 L 1325,465 L 1325,460 z M 965,465 L 970,465 L 970,470 L 965,470 L 965,465 z M 975,465 L 980,465 L 980,470 L 975,470 L 975,465 z M 1435,465 L 1440,465 L 1440,470 L 1435,470 L 1435,465 z M 1535,465 L 1540,465 L 1540,470 L 1535,470 L 1535,465 z M 1545,465 L 1550,465 L 1550,470 L 1545,470 L 1545,465 z M 1580,465 L 1585,465 L 1585,470 L 1580,470 L 1580,465 z M 1130,470 L 1135,470 L 1135,475 L 1130,475 L 1130,470 z M 1140,470 L 1145,470 L 1145,475 L 1140,475 L 1140,470 z M 1150,470 L 1155,470 L 1155,475 L 1150,475 L 1150,470 z M 1285,470 L 1290,470 L 1290,475 L 1285,475 L 1285,470 z M 1295,470 L 1300,470 L 1300,475 L 1295,475 L 1295,470 z M 1305,470 L 1310,470 L 1310,475 L 1305,475 L 1305,470 z M 1315,470 L 1320,470 L 1320,475 L 1315,475 L 1315,470 z M 1325,470 L 1330,470 L 1330,475 L 1325,475 L 1325,470 z M 1405,470 L 1410,470 L 1410,475 L 1405,475 L 1405,470 z M 1415,470 L 1420,470 L 1420,475 L 1415,475 L 1415,470 z M 965,475 L 970,475 L 970,480 L 965,480 L 965,475 z M 975,475 L 980,475 L 980,480 L 975,480 L 975,475 z M 1580,475 L 1585,475 L 1585,480 L 1580,480 L 1580,475 z M 1130,480 L 1135,480 L 1135,485 L 1130,485 L 1130,480 z M 1140,480 L 1145,480 L 1145,485 L 1140,485 L 1140,480 z M 1150,480 L 1155,480 L 1155,485 L 1150,485 L 1150,480 z M 1415,480 L 1420,480 L 1420,485 L 1415,485 L 1415,480 z M 965,485 L 970,485 L 970,490 L 965,490 L 965,485 z M 975,485 L 980,485 L 980,490 L 975,490 L 975,485 z M 1130,490 L 1135,490 L 1135,495 L 1130,495 L 1130,490 z M 1140,490 L 1145,490 L 1145,495 L 1140,495 L 1140,490 z M 1150,490 L 1155,490 L 1155,495 L 1150,495 L 1150,490 z M 1260,490 L 1300,490 L 1305,495 L 1265,495 L 1265,530 L 1260,530 L 1260,490 z M 1130,500 L 1135,500 L 1135,505 L 1130,505 L 1130,500 z M 1140,500 L 1145,500 L 1145,505 L 1140,505 L 1140,500 z M 1150,500 L 1155,500 L 1155,505 L 1150,505 L 1150,500 z M 1280,509 L 1305,509 L 1305,525 L 1280,525 L 1280,509 z M 1130,510 L 1135,510 L 1135,515 L 1130,515 L 1130,510 z M 1140,510 L 1145,510 L 1145,515 L 1140,515 L 1140,510 z M 1150,510 L 1155,510 L 1155,515 L 1150,515 L 1150,510 z M 1310,512 L 1314,512 L 1317,515 L 1310,515 L 1310,512 z M 1467,522 L 1471,522 L 1471,525 L 1464,525 L 1467,522 z M 1473,522 L 1479,522 L 1482,525 L 1473,525 L 1473,522 z M 1065,530 L 1070,530 L 1070,535 L 1065,535 L 1065,530 z M 1075,530 L 1080,530 L 1080,535 L 1075,535 L 1075,530 z M 1085,530 L 1090,530 L 1090,535 L 1085,535 L 1085,530 z M 1510,530 L 1515,530 L 1515,535 L 1510,535 L 1510,530 z M 1520,530 L 1525,530 L 1525,535 L 1520,535 L 1520,530 z M 1530,530 L 1535,530 L 1535,535 L 1530,535 L 1530,530 z M 1065,540 L 1070,540 L 1070,545 L 1065,545 L 1065,540 z M 1075,540 L 1080,540 L 1080,545 L 1075,545 L 1075,540 z M 1085,540 L 1090,540 L 1090,545 L 1085,545 L 1085,540 z M 1510,540 L 1515,540 L 1515,545 L 1510,545 L 1510,540 z M 1520,540 L 1525,540 L 1525,545 L 1520,545 L 1520,540 z M 1530,540 L 1535,540 L 1535,545 L 1530,545 L 1530,540 z M 1065,550 L 1070,550 L 1070,555 L 1065,555 L 1065,550 z M 1075,550 L 1080,550 L 1080,555 L 1075,555 L 1075,550 z M 1085,550 L 1090,550 L 1090,555 L 1085,555 L 1085,550 z M 1510,550 L 1515,550 L 1515,555 L 1510,555 L 1510,550 z M 1520,550 L 1525,550 L 1525,555 L 1520,555 L 1520,550 z M 1530,550 L 1535,550 L 1535,555 L 1530,555 L 1530,550 z M 1065,560 L 1070,560 L 1070,565 L 1065,565 L 1065,560 z M 1075,560 L 1080,560 L 1080,565 L 1075,565 L 1075,560 z M 1085,560 L 1090,560 L 1090,565 L 1085,565 L 1085,560 z M 1100,560 L 1100,580 L 1500,580 L 1500,560 L 1100,560 z M 1510,560 L 1515,560 L 1515,565 L 1510,565 L 1510,560 z M 1520,560 L 1525,560 L 1525,565 L 1520,565 L 1520,560 z M 1530,560 L 1535,560 L 1535,565 L 1530,565 L 1530,560 z"
       id="path9134" />
    <g
       style="display:inline"
       id="g4860"
       inkscape:export-filename="/Users/saman/Desktop/mn2_illo_wip2.png"
       inkscape:export-xdpi="90"
       inkscape:export-ydpi="90"
       transform="matrix(-1,0,0,1,2390,105)">
      <path
         sodipodi:nodetypes="ccccc"
         id="path9577"
         d="M 1210,425 L 1220,425 L 1220,335 L 1210,335 L 1210,425 z"
         style="opacity:1;fill:url(#linearGradient7222);fill-opacity:1;stroke:none;stroke-width:1;stroke-linecap:square;stroke-linejoin:miter;stroke-miterlimit:4;stroke-dasharray:none;stroke-dashoffset:4;stroke-opacity:1" />
    </g>
    <path
       style="fill:#ffffff;fill-opacity:0.25098039;stroke:none;stroke-width:1;stroke-linecap:square;stroke-linejoin:miter;stroke-miterlimit:4;stroke-dasharray:none;stroke-dashoffset:4;stroke-opacity:1"
       d="M 1497.75,210 C 1492.3485,210 1488,214.3485 1488,219.75 L 1488,245.25 C 1488,250.6515 1492.3485,255 1497.75,255 L 1538,255 C 1538,258 1538,265 1550,265 C 1546.8775,263.19722 1546,260 1546,255 L 1548.25,255 C 1553.6515,255 1558,250.6515 1558,245.25 L 1558,219.75 C 1558,214.3485 1553.6515,210 1548.25,210 L 1497.75,210 z M 1309.75,300 C 1304.3485,300 1300,304.3485 1300,309.75 L 1300,335.25 C 1300,340.6515 1304.3485,345 1309.75,345 L 1312,345 C 1312,350 1311.1225,353.19722 1308,355 C 1320,355 1320,348 1320,345 L 1335.25,345 C 1340.6515,345 1345,340.6515 1345,335.25 L 1345,309.75 C 1345,304.3485 1340.6515,300 1335.25,300 L 1309.75,300 z M 1114.75,320 C 1109.3485,320 1105,324.3485 1105,329.75 L 1105,345.25 C 1105,350.6515 1109.3485,355 1114.75,355 L 1130,355 C 1130,358 1130,365 1142,365 C 1138.8775,363.19722 1138,360 1138,355 L 1140.25,355 C 1145.6515,355 1150,350.6515 1150,345.25 L 1150,329.75 C 1150,324.3485 1145.6515,320 1140.25,320 L 1114.75,320 z M 1558.75,340 C 1553.3485,340 1549,344.3485 1549,349.75 L 1549,355.25 C 1549,360.6515 1553.3485,365 1558.75,365 L 1567,365 C 1567,368 1567,375 1579,375 C 1575.8775,373.19722 1575,370 1575,365 L 1575,364.9375 C 1580.0468,364.55538 1584,360.39798 1584,355.25 L 1584,349.75 C 1584,344.3485 1579.6515,340 1574.25,340 L 1558.75,340 z M 914.75,450 C 909.3485,450 905,454.3485 905,459.75 L 905,465.25 C 905,470.6515 909.3485,475 914.75,475 L 923,475 C 923,478 923,485 935,485 C 931.8775,483.19722 931,480 931,475 L 931,474.9375 C 936.04685,474.55538 940,470.39798 940,465.25 L 940,459.75 C 940,454.3485 935.6515,450 930.25,450 L 914.75,450 z M 1467.75,450 C 1462.3485,450 1458,454.3485 1458,459.75 L 1458,475.25 C 1458,480.6515 1462.3485,485 1467.75,485 L 1483,485 C 1483,488 1483,495 1495,495 C 1491.8775,493.19722 1491,490 1491,485 L 1493.25,485 C 1498.6515,485 1503,480.6515 1503,475.25 L 1503,459.75 C 1503,454.3485 1498.6515,450 1493.25,450 L 1467.75,450 z"
       id="rect9288" />
    <path
       style="fill:url(#linearGradient7294);fill-opacity:1;stroke:none;stroke-width:1;stroke-linecap:square;stroke-linejoin:miter;stroke-miterlimit:4;stroke-dasharray:none;stroke-dashoffset:4;stroke-opacity:1;display:inline"
       d="M 1350,490 L 1340,490 L 1340,430 L 1325,430 L 1325,400 L 1350,375 L 1350,490 z"
       id="path9571"
       sodipodi:nodetypes="ccccccc"
       inkscape:export-filename="/Users/saman/Desktop/mn2_illo_wip2.png"
       inkscape:export-xdpi="90"
       inkscape:export-ydpi="90" />
    <path
       style="fill:#ffffff;fill-opacity:0.25098039;stroke:none;stroke-width:1;stroke-linecap:square;stroke-linejoin:miter;stroke-miterlimit:4;stroke-dashoffset:4;stroke-opacity:1"
       d="M 1239.75,170 C 1234.3485,170 1230,174.3485 1230,179.75 L 1230,185.25 C 1230,190.6515 1234.3485,195 1239.75,195 L 1248,195 C 1248,198 1248,205 1260,205 C 1256.8775,203.19722 1256,200 1256,195 L 1256,194.9375 C 1261.0468,194.55538 1265,190.39798 1265,185.25 L 1265,179.75 C 1265,174.3485 1260.6515,170 1255.25,170 L 1239.75,170 z M 1389.75,200 C 1384.3485,200 1380,204.3485 1380,209.75 L 1380,215.25 C 1380,220.39798 1383.9532,224.55538 1389,224.9375 L 1389,225 C 1389,230 1388.1225,233.19722 1385,235 C 1397,235 1397,228 1397,225 L 1405.25,225 C 1410.6515,225 1415,220.6515 1415,215.25 L 1415,209.75 C 1415,204.3485 1410.6515,200 1405.25,200 L 1389.75,200 z M 1147.375,212.25 C 1144.8676,212.25 1142.3401,212.4777 1139.9375,212.90625 C 1134.6589,219.77917 1133.8954,230.08087 1135,240.03125 C 1136.1151,250.0756 1139.0871,259.70734 1141.0312,265 L 1153.7188,265 C 1155.6628,259.70734 1158.6349,250.0756 1159.75,240.03125 C 1160.8539,230.088 1160.0824,219.77918 1154.8125,212.90625 C 1154.8024,212.90438 1154.7914,212.90811 1154.7812,212.90625 C 1152.409,212.47052 1149.9033,212.25 1147.375,212.25 z M 1138.5312,213.15625 C 1133.7269,214.20463 1129.522,216.16279 1127,219 C 1116.4119,230.91159 1122,249 1132,259 L 1136.8125,265 L 1140,265 C 1138.0333,259.58866 1135.1071,250.09838 1134,240.125 C 1132.9248,230.43934 1133.5541,220.32842 1138.5312,213.15625 z M 1156.25,213.1875 C 1161.2045,220.35756 1161.8235,230.45538 1160.75,240.125 C 1159.6428,250.09838 1156.7167,259.58866 1154.75,265 L 1157.1875,265 L 1162,259 C 1172,249 1176.7845,231.58004 1167,219 C 1164.8172,216.19352 1160.8721,214.24368 1156.25,213.1875 z M 1444,241 L 1442.7812,242 L 1474,242 L 1474,241 L 1444,241 z M 1368.8125,241.1875 C 1366.9067,241.20113 1364.7621,241.25443 1362.5312,241.3125 C 1361.7248,241.33359 1360.9349,241.34543 1360.0938,241.375 C 1359.8783,241.38254 1359.6859,241.39809 1359.4688,241.40625 C 1357.7645,241.47013 1356.0025,241.54832 1354.1875,241.65625 C 1353.9948,241.66771 1353.7875,241.67547 1353.5938,241.6875 C 1352.0564,241.78298 1350.4978,241.89621 1348.9062,242.03125 C 1348.8004,242.04022 1348.6997,242.05333 1348.5938,242.0625 C 1348.3652,242.08226 1348.1356,242.10434 1347.9062,242.125 C 1346.3625,242.26405 1344.8221,242.44161 1343.25,242.625 C 1342.0618,242.76341 1340.8519,242.89571 1339.6562,243.0625 C 1339.2192,243.12359 1338.781,243.18487 1338.3438,243.25 C 1337.7064,243.3448 1337.0744,243.42754 1336.4375,243.53125 C 1336.133,243.58086 1335.8359,243.63579 1335.5312,243.6875 C 1335.0018,243.7774 1334.4655,243.8723 1333.9375,243.96875 C 1333.8646,243.98208 1333.7911,243.98654 1333.7188,244 C 1332.8642,244.15768 1332.0358,244.32428 1331.1875,244.5 C 1329.3197,244.88722 1327.4718,245.33024 1325.6562,245.8125 C 1325.2281,245.92612 1324.7991,246.03699 1324.375,246.15625 C 1323.8099,246.31532 1323.2447,246.48688 1322.6875,246.65625 C 1321.7761,246.93329 1320.8869,247.22551 1320,247.53125 C 1319.1393,247.82794 1318.2713,248.14372 1317.4375,248.46875 C 1317.3009,248.52203 1317.1671,248.57094 1317.0312,248.625 C 1316.4831,248.84304 1315.941,249.08151 1315.4062,249.3125 C 1314.9534,249.50838 1314.505,249.70081 1314.0625,249.90625 C 1313.6615,250.09219 1313.267,250.27481 1312.875,250.46875 C 1312.3884,250.70971 1311.9094,250.96514 1311.4375,251.21875 C 1311.1734,251.36069 1310.916,251.51027 1310.6562,251.65625 C 1310.3762,251.81392 1310.0867,251.96254 1309.8125,252.125 C 1309.3008,252.42823 1308.8027,252.74225 1308.3125,253.0625 C 1308.0468,253.23604 1307.7903,253.41511 1307.5312,253.59375 C 1307.1707,253.84246 1306.8157,254.08498 1306.4688,254.34375 C 1306.1032,254.61613 1305.7564,254.90374 1305.4062,255.1875 C 1305.1816,255.36953 1304.9681,255.56321 1304.75,255.75 C 1304.3088,256.12801 1303.8506,256.50836 1303.4375,256.90625 C 1303.037,257.29204 1302.654,257.6888 1302.2812,258.09375 C 1302.1467,258.24 1302.0058,258.38247 1301.875,258.53125 C 1301.6234,258.81735 1301.3936,259.11064 1301.1562,259.40625 C 1300.9421,259.67288 1300.734,259.94427 1300.5312,260.21875 C 1300.5,260.26108 1300.4684,260.30124 1300.4375,260.34375 C 1300.2366,260.6201 1300.0322,260.90312 1299.8438,261.1875 C 1299.685,261.42692 1299.5248,261.66106 1299.375,261.90625 C 1299.3312,261.97798 1299.293,262.05277 1299.25,262.125 C 1299.0977,262.38055 1298.9549,262.64442 1298.8125,262.90625 C 1298.6216,263.25721 1298.4227,263.60636 1298.25,263.96875 C 1298.2299,264.01086 1298.2073,264.05149 1298.1875,264.09375 C 1298.0381,264.41203 1297.9167,264.73532 1297.7812,265.0625 C 1297.6291,265.43165 1297.4771,265.80686 1297.3438,266.1875 C 1297.4934,266.61454 1297.6705,267.02492 1297.8438,267.4375 C 1297.9452,267.67913 1298.0474,267.91952 1298.1562,268.15625 C 1298.361,268.59909 1298.5808,269.04277 1298.8125,269.46875 C 1298.8882,269.60786 1298.984,269.73767 1299.0625,269.875 C 1299.1802,270.08088 1299.2824,270.29808 1299.4062,270.5 C 1299.547,270.72961 1299.6951,270.96296 1299.8438,271.1875 C 1300.0476,271.49488 1300.2505,271.79574 1300.4688,272.09375 C 1300.5566,272.21376 1300.6598,272.319 1300.75,272.4375 C 1300.9317,272.67671 1301.0904,272.92311 1301.2812,273.15625 C 1301.4388,273.34842 1301.6182,273.53066 1301.7812,273.71875 C 1301.8895,273.84318 1301.9829,273.97109 1302.0938,274.09375 C 1302.152,274.1583 1302.2224,274.21719 1302.2812,274.28125 C 1302.3846,274.3934 1302.4882,274.51434 1302.5938,274.625 C 1302.8024,274.84393 1303.0013,275.06806 1303.2188,275.28125 C 1303.2813,275.34278 1303.343,275.4077 1303.4062,275.46875 C 1303.5935,275.64935 1303.8069,275.82352 1304,276 C 1304.5952,276.54371 1305.2269,277.05707 1305.875,277.5625 C 1306.5312,278.07427 1307.1999,278.55728 1307.9062,279.03125 C 1307.9185,279.03947 1307.9252,279.05429 1307.9375,279.0625 C 1308.6296,279.52575 1309.3578,279.97781 1310.0938,280.40625 C 1310.8417,280.84166 1311.6171,281.25538 1312.4062,281.65625 C 1313.2031,282.06103 1314.0091,282.44147 1314.8438,282.8125 C 1316.2422,283.43418 1317.6991,284.03006 1319.1875,284.5625 C 1319.4583,284.65947 1319.7266,284.74959 1320,284.84375 C 1320.8829,285.14752 1321.7804,285.44346 1322.6875,285.71875 C 1322.925,285.79083 1323.1672,285.86731 1323.4062,285.9375 C 1324.0871,286.13754 1324.7767,286.31489 1325.4688,286.5 C 1326.2295,286.7033 1326.9782,286.90779 1327.75,287.09375 C 1327.9362,287.13874 1328.1257,287.17474 1328.3125,287.21875 C 1328.8685,287.34942 1329.4395,287.47159 1330,287.59375 C 1331.3541,287.88964 1332.691,288.15718 1334.0625,288.40625 C 1334.7185,288.52512 1335.3732,288.64117 1336.0312,288.75 C 1336.9496,288.90236 1337.862,289.05366 1338.7812,289.1875 C 1338.8743,289.201 1338.9695,289.20543 1339.0625,289.21875 C 1340.4156,289.41311 1341.7801,289.5923 1343.125,289.75 C 1343.9682,289.84852 1344.7926,289.91725 1345.625,290 L 1404.1875,290 C 1407.1661,289.78419 1410.0847,289.54555 1412.875,289.28125 C 1414.3434,289.14242 1415.769,288.99518 1417.1875,288.84375 C 1417.6651,288.79268 1418.153,288.73994 1418.625,288.6875 C 1418.8066,288.66736 1418.976,288.64534 1419.1562,288.625 C 1420.8406,288.43521 1422.4808,288.23779 1424.0938,288.03125 C 1424.1252,288.02723 1424.1561,288.03527 1424.1875,288.03125 C 1427.7182,287.57811 1431.0857,287.08644 1434.2812,286.5625 C 1435.4557,286.37024 1436.5899,286.16765 1437.7188,285.96875 L 1439,287 L 1474,287 L 1474,281.65625 L 1464.9062,279.21875 C 1465.1894,279.11758 1465.4728,279.0035 1465.75,278.90625 C 1466.5709,278.61823 1467.3551,278.35191 1468.125,278.0625 C 1468.2021,278.03355 1468.2672,277.99771 1468.3438,277.96875 C 1468.6674,277.84628 1468.9671,277.71632 1469.2812,277.59375 C 1470.4272,277.14751 1471.5344,276.72657 1472.5625,276.28125 C 1472.7709,276.19099 1472.9839,276.09013 1473.1875,276 C 1473.8508,275.70647 1474.4804,275.41648 1475.0938,275.125 C 1475.2023,275.0734 1475.2992,275.02027 1475.4062,274.96875 C 1475.9596,274.7026 1476.4876,274.45095 1477,274.1875 C 1477.1507,274.11008 1477.2903,274.0459 1477.4375,273.96875 C 1477.8912,273.73107 1478.2976,273.48466 1478.7188,273.25 C 1479.2688,272.94324 1479.7869,272.64416 1480.2812,272.34375 C 1480.6613,272.11299 1481.0269,271.88257 1481.375,271.65625 C 1481.4775,271.58958 1481.5877,271.535 1481.6875,271.46875 C 1481.9137,271.31884 1482.1003,271.17889 1482.3125,271.03125 C 1482.5212,270.88632 1482.7109,270.76758 1482.9062,270.625 C 1483.1374,270.45635 1483.3498,270.2901 1483.5625,270.125 C 1483.7189,270.00381 1483.8534,269.9004 1484,269.78125 C 1484.2219,269.6013 1484.4252,269.42501 1484.625,269.25 C 1484.7361,269.15259 1484.8331,269.06454 1484.9375,268.96875 C 1485.1529,268.77191 1485.344,268.59586 1485.5312,268.40625 C 1485.5969,268.33981 1485.656,268.28426 1485.7188,268.21875 C 1485.9219,268.00536 1486.0826,267.79671 1486.25,267.59375 C 1486.2806,267.55683 1486.3139,267.53656 1486.3438,267.5 C 1486.5163,267.2853 1486.6798,267.07669 1486.8125,266.875 C 1486.8265,266.85377 1486.8302,266.83358 1486.8438,266.8125 C 1486.9844,266.59432 1487.0929,266.3889 1487.1875,266.1875 C 1486.6746,265.09543 1485.4975,263.74938 1483.5625,262.25 C 1482.7885,261.65025 1481.8958,261.01649 1480.875,260.375 C 1477.2286,258.08367 1471.9607,255.58677 1464.8438,253.15625 L 1474,250.71875 L 1474,245 L 1439.0625,245 L 1437.4062,246.34375 C 1436.3719,246.15902 1435.3556,245.98833 1434.2812,245.8125 C 1431.0572,245.28471 1427.6585,244.79948 1424.0938,244.34375 C 1409.8345,242.52083 1392.8084,241.32191 1372.6562,241.1875 C 1371.4823,241.1875 1370.1977,241.17759 1368.8125,241.1875 z M 1441.5312,243 L 1440.3125,244 L 1474,244 L 1474,243 L 1441.5312,243 z M 1349.4688,243.53125 C 1351.6456,243.53452 1353.8633,243.64062 1356.125,243.875 C 1362.375,246.8125 1360.5625,247.8125 1365.375,247.8125 C 1370.1875,247.8125 1374.6875,250.1875 1376.375,250.875 C 1378.0625,251.5625 1378.125,250 1378.25,249.5 C 1378.375,249 1376.6875,249.5 1376.375,248.375 C 1376.0625,247.25 1380.75,246.4375 1381.8125,246.3125 C 1382.875,246.1875 1392.125,252.5 1392.8125,253.9375 C 1393.5,255.375 1391.6875,255.875 1390.8125,255.4375 C 1389.9375,255 1389.125,254.875 1388.5,255.625 C 1387.875,256.375 1386.125,255.75 1385.8125,255.125 C 1385.5,254.5 1386.1875,253.75 1385.875,252.875 C 1385.5625,252 1384.125,251.4375 1383.5625,251.125 C 1383,250.8125 1381.5625,253.1875 1381.0625,254 C 1380.5625,254.8125 1382.8125,257.3125 1386,257.8125 C 1389.1875,258.3125 1392.6875,259.625 1393.375,260.375 C 1394.0625,261.125 1395.0625,262.625 1395.0625,263.5625 C 1395.0625,264.5 1395.6875,264.1875 1397.9375,265 C 1400.1875,265.8125 1398.375,267.875 1398.0625,269.5 C 1397.75,271.125 1400.6875,273.9375 1401.6875,275 C 1402.6875,276.0625 1401.875,278.625 1401.875,279.5625 C 1401.875,280.5 1398.75,283.5 1398.25,283.9375 C 1397.75,284.375 1393.5,283.25 1392.625,283.25 C 1391.75,283.25 1391.8125,283.5 1390.1875,284.625 C 1388.5625,285.75 1390,286.0625 1389.5625,287.4375 C 1389.125,288.8125 1375.5,288.9375 1375.5,288.9375 C 1375.5,288.9375 1375.125,287.375 1375,286.9375 C 1374.875,286.5 1371.6875,282.5 1371.3125,281.75 C 1370.9375,281 1373.25,281.125 1374.0625,281 C 1374.875,280.875 1378.8125,274.0625 1378.75,273.25 C 1378.6875,272.4375 1378.625,272.4375 1378.625,272.0625 C 1378.625,271.6875 1383.875,270.75 1384.375,270.6875 C 1384.875,270.625 1386.6875,271.125 1387.125,271.125 C 1387.5625,271.125 1389.8125,268.875 1390.0625,268.5625 C 1390.3125,268.25 1395.3125,268.9375 1395.625,268.875 C 1395.9375,268.8125 1392.4375,265.0625 1391.75,264.625 C 1391.0625,264.1875 1389.4375,263.875 1389.1875,264 C 1388.9375,264.125 1387.25,266.25 1386.875,266.375 C 1386.5,266.5 1386.5625,264.125 1386.5625,264.125 C 1386.5625,264.125 1386,264.6875 1385.5,265.125 C 1385,265.5625 1384.0625,267.125 1383.6875,267.75 C 1383.3125,268.375 1382.8125,266.375 1382.25,266.1875 C 1381.6875,266 1380.25,268.1875 1380,268.125 C 1379.75,268.0625 1377.1875,268.4375 1376.875,268.4375 C 1376.5625,268.4375 1377.125,271.9375 1377,272.8125 C 1376.875,273.6875 1373.625,279.375 1373.25,279.9375 C 1372.875,280.5 1367.3125,277.0625 1366.3125,276 C 1365.3125,274.9375 1367.3125,274.8125 1367.6875,274.3125 C 1368.0625,273.8125 1366.375,273.8125 1365,274 C 1363.625,274.1875 1359.8125,275.375 1359.625,278.0625 C 1359.4375,280.75 1358.75,281.6875 1358.5,282.0625 C 1358.25,282.4375 1356.3125,278.1875 1355.1875,277.25 C 1354.0625,276.3125 1354.0625,276.25 1352.875,275.6875 C 1351.6875,275.125 1349.5,277 1348.875,278.25 C 1348.25,279.5 1345,281.25 1344.5625,281.3125 C 1344.125,281.375 1343,279.8125 1343,279.375 C 1343,278.9375 1345.375,276.4375 1344.9375,275.75 C 1344.5,275.0625 1341.375,275.875 1340.6875,275.1875 C 1340,274.5 1337.8125,273.75 1338,272.375 C 1338.1875,271 1339.6875,269 1337.8125,267.5625 C 1335.9375,266.125 1333.4375,264.625 1332.375,264.375 C 1331.3125,264.125 1329.1875,262.3125 1329.0625,260.3125 C 1328.9375,258.3125 1331.25,257.75 1330.625,256.875 C 1330,256 1327.375,254.875 1324.875,254.625 C 1322.375,254.375 1318.3125,252.5625 1318,252.5 C 1317.6875,252.4375 1320.6875,255.25 1321.6875,256.625 C 1322.6875,258 1322.625,259.75 1321.625,260.25 C 1320.625,260.75 1318.5625,257.625 1318.25,256.5 C 1317.9375,255.375 1312.5625,253.375 1312.25,253.3125 C 1311.9668,253.25586 1328.4257,243.49967 1349.4688,243.53125 z M 1405.375,244.1875 C 1417.375,244.5 1419.8125,245.9375 1419.8125,245.9375 C 1418.25,246.75 1418.9375,250 1417.5,251.8125 C 1416.0625,253.625 1414.8125,254.5 1413.875,252.9375 C 1412.9375,251.375 1412.375,248.9375 1409.75,248.25 C 1407.125,247.5625 1405.75,247.375 1405.375,244.1875 z M 1423.375,245.5 L 1434.3125,247.25 C 1434.3125,247.25 1434.3447,247.52539 1434.3438,247.90625 C 1440.0289,248.83234 1458.1425,251.89251 1460,253.75 C 1455.0625,256.125 1451.875,260.5625 1451.5,262.625 C 1451.125,264.6875 1450.75,267.125 1450.6875,267.75 C 1450.625,268.375 1445.625,272.1875 1444.8125,273.1875 C 1444,274.1875 1442.6875,276.0625 1442.4375,277.0625 C 1442.1875,278.0625 1437.5625,278.625 1436,279.4375 C 1434.4375,280.25 1433.75,281.875 1432.25,282.25 C 1430.75,282.625 1429.9375,285.0625 1429.9375,285.0625 C 1429.9375,285.0625 1416.4375,287.75 1416.625,286.9375 C 1416.8125,286.125 1416.6875,285.3125 1418.25,283.625 C 1419.8125,281.9375 1421.6875,282.125 1423.0625,281.1875 C 1424.4375,280.25 1429.4375,280.4375 1430,281.0625 C 1430.5625,281.6875 1432.1875,282.0625 1432.8125,280.6875 C 1433.4375,279.3125 1434.75,278.5625 1435.3125,278.0625 C 1435.875,277.5625 1434.375,277.1875 1434.625,276.25 C 1434.875,275.3125 1437.3125,277.8125 1438.4375,276.5625 C 1439.5625,275.3125 1439.9375,272.625 1438.0625,271.875 C 1436.1875,271.125 1432.5,271.5625 1430.875,269.6875 C 1429.25,267.8125 1425.9375,264.5625 1425.375,263.8125 C 1424.8125,263.0625 1425.875,262.625 1426.6875,261.625 C 1425.9375,260.8125 1421.3125,260.875 1420.5625,260 C 1419.8125,259.125 1422.6875,256.625 1424.0625,255.1875 C 1425.4375,253.75 1426.1875,254.875 1427.125,253.875 C 1428.0625,252.875 1430.625,253.5625 1430.4375,255.125 C 1430.25,256.6875 1429.875,257.6875 1430.6875,258.5 C 1431.5,259.3125 1431.25,257.5625 1433.5,256.9375 C 1435.75,256.3125 1439.125,254.4375 1437.1875,252.25 C 1436.3072,251.25613 1434.871,249.54363 1434.125,249.34375 C 1432.3622,248.8714 1431.5147,250.62655 1429.9375,251.5625 C 1428.6818,252.30762 1426.7525,252.45674 1425.375,252.75 C 1424.1862,253.00307 1425.75,249.9375 1425.375,249.3125 C 1425,248.6875 1424.1875,250.1875 1423.5,249.625 C 1422.8125,249.0625 1423.375,245.5 1423.375,245.5 z M 1401.875,249.84375 C 1402.0387,249.83435 1402.2207,249.83398 1402.4062,249.84375 C 1403.1484,249.88281 1404.0312,250.0625 1404.75,250.3125 C 1404.75,250.375 1405.75,252.125 1403.125,251.5 C 1400.5,250.875 1400.5,250.9375 1400.875,250.25 C 1401.0156,249.99219 1401.3839,249.87195 1401.875,249.84375 z M 1396.4062,256 C 1397.0434,255.90408 1394.9492,258.5625 1396.0625,258.5625 C 1396.901,258.5625 1396.5,257.5625 1397.625,257.8125 C 1398.75,258.0625 1398.875,259.3125 1397.8125,259.3125 C 1396.75,259.3125 1397.25,260.5 1395.9375,260.1875 C 1394.625,259.875 1394.1875,260.0625 1393.75,259.3125 C 1393.3125,258.5625 1393.9102,257.16856 1396.25,256.0625 C 1396.3186,256.03007 1396.3638,256.00639 1396.4062,256 z M 1137.5938,266 L 1140,269 L 1154,269 L 1156.4062,266 L 1137.5938,266 z M 1141,270 L 1141,273 L 1143,273 L 1143,270 L 1141,270 z M 1151,270 L 1151,273 L 1153,273 L 1153,270 L 1151,270 z M 1140,274 L 1142,281 L 1152,281 L 1154,274 L 1140,274 z M 1440.25,288 L 1441.5,289 L 1474,289 L 1474,288 L 1440.25,288 z M 1442.75,290 L 1444,291 L 1474,291 L 1474,290 L 1442.75,290 z M 1356.7812,291 L 1361.0938,301.1875 L 1386.1875,301.1875 L 1390.4688,291 L 1356.7812,291 z M 1365.5938,293.25 C 1366.9939,293.25 1368.1563,294.35 1368.1562,295.75 C 1368.1562,297.15004 1366.9937,298.31246 1365.5938,298.3125 C 1364.1937,298.3125 1363.0928,297.15008 1363.0938,295.75 C 1363.0938,294.34996 1364.193,293.25004 1365.5938,293.25 z M 1373.6562,293.25 C 1375.0561,293.25 1376.1875,294.35 1376.1875,295.75 C 1376.1875,297.15004 1375.0567,298.31246 1373.6562,298.3125 C 1372.2561,298.3125 1371.0937,297.15008 1371.0938,295.75 C 1371.0938,294.34996 1372.2565,293.25004 1373.6562,293.25 z M 1381.6875,293.25 C 1383.0874,293.25 1384.1875,294.35 1384.1875,295.75 C 1384.1875,297.15004 1383.0874,298.31246 1381.6875,298.3125 C 1380.2874,298.3125 1379.0938,297.15008 1379.0938,295.75 C 1379.0935,294.34996 1380.2871,293.25004 1381.6875,293.25 z M 1517,299 C 1514,299 1500,314 1500,314 L 1450,314 C 1444.46,314 1435,318.28459 1435,323.59375 C 1435,328.38541 1444.46,328.375 1450,328.375 C 1450,328.375 1457.5309,328.375 1460,328.375 C 1460,328.375 1486.1905,340.02089 1492,343.375 C 1492.3783,343.59339 1492.71,343.74942 1493,343.84375 L 1493,328 L 1494,328 L 1494,343.84375 C 1494.8516,343.42329 1494.9972,341.5784 1495,338 C 1495.0017,335.74391 1495.0006,332.02809 1495,328.375 C 1505,328.375 1520,323.59375 1520,323.59375 L 1520,319 C 1520,315.99305 1520.0305,313.39976 1520.0625,311.15625 C 1520.1902,302.20811 1520.1982,299 1517,299 z M 1494,300.53125 L 1494,313 L 1495,313 C 1495,306.01472 1495.607,301.232 1494,300.53125 z M 1493,300.5625 C 1492.704,300.65139 1492.3837,300.77846 1492,301 C 1488.0922,303.25616 1475.177,309.30844 1467,313 L 1493,313 L 1493,300.5625 z M 1452.5,318.375 C 1453.88,318.375 1455,319.495 1455,320.875 C 1455,322.255 1453.88,323.375 1452.5,323.375 C 1451.12,323.375 1450,322.255 1450,320.875 C 1450,319.495 1451.12,318.375 1452.5,318.375 z M 1462.5,318.375 C 1463.88,318.375 1465,319.495 1465,320.875 C 1465,322.255 1463.88,323.375 1462.5,323.375 C 1461.12,323.375 1460,322.255 1460,320.875 C 1460,319.495 1461.12,318.375 1462.5,318.375 z M 1472.5,318.375 C 1473.88,318.375 1475,319.495 1475,320.875 C 1475,322.255 1473.88,323.375 1472.5,323.375 C 1471.12,323.375 1470,322.255 1470,320.875 C 1470,319.495 1471.12,318.375 1472.5,318.375 z M 1482.5,318.375 C 1483.88,318.375 1485,319.495 1485,320.875 C 1485,322.255 1483.88,323.375 1482.5,323.375 C 1481.12,323.375 1480,322.255 1480,320.875 C 1480,319.495 1481.12,318.375 1482.5,318.375 z M 1492.5,318.375 C 1493.88,318.375 1495,319.495 1495,320.875 C 1495,322.255 1493.88,323.375 1492.5,323.375 C 1491.12,323.375 1490,322.255 1490,320.875 C 1490,319.495 1491.12,318.375 1492.5,318.375 z M 1434.4062,340.90625 C 1423.6696,340.90624 1414.9688,342.64589 1414.9688,344.78125 C 1414.9688,346.84828 1423.1452,348.51894 1433.4062,348.625 L 1433.4062,351.96875 C 1428.3511,352.46705 1424.4062,356.72082 1424.4062,361.90625 C 1424.4062,365.59758 1426.4282,368.83001 1429.4062,370.5625 L 1429.4062,372.90625 L 1422.4062,372.90625 L 1424.4062,374.90625 L 1444.4062,374.90625 L 1444.4062,372.90625 L 1439.4062,372.90625 L 1439.4062,370.59375 C 1441.8518,369.18258 1443.6429,366.76199 1444.2188,363.90625 L 1454.75,363.90625 C 1455.5737,366.23702 1457.7946,367.90625 1460.4062,367.90625 C 1463.7183,367.90624 1466.4062,365.21825 1466.4062,361.90625 C 1466.4063,358.59424 1463.7182,355.90625 1460.4062,355.90625 C 1457.7601,355.90624 1455.5156,357.62096 1454.7188,360 L 1444.2188,360 C 1443.3827,355.71623 1439.8198,352.40381 1435.4062,351.96875 L 1435.4062,348.625 C 1445.6673,348.51895 1453.8438,346.84827 1453.8438,344.78125 C 1453.8438,342.64591 1445.1429,340.90625 1434.4062,340.90625 z M 1434.4062,342.90625 C 1434.9602,342.90625 1435.4063,343.35227 1435.4062,343.90625 L 1435.4062,344.90625 L 1433.4062,344.90625 L 1433.4062,343.90625 C 1433.4062,343.35226 1433.8523,342.90624 1434.4062,342.90625 z M 1434.7812,353.25 L 1434.7812,362.3125 L 1425.75,362.3125 C 1425.75,357.31302 1429.7818,353.25001 1434.7812,353.25 z M 1460.4062,357.90625 C 1462.6143,357.90625 1464.4062,359.69822 1464.4062,361.90625 C 1464.4062,364.11427 1462.6143,365.90624 1460.4062,365.90625 C 1458.5789,365.90625 1457.0712,364.67479 1456.5938,363 L 1460,363 L 1460,364.71875 L 1461,364.71875 L 1461,363 L 1461,361 L 1461,359 L 1460,359 L 1460,361 L 1456.5312,361 C 1456.9416,359.22696 1458.5092,357.90626 1460.4062,357.90625 z M 1431.4062,371.46875 C 1432.3537,371.76675 1433.3608,371.90625 1434.4062,371.90625 C 1435.4514,371.90625 1436.459,371.7666 1437.4062,371.46875 L 1437.4062,372.90625 L 1431.4062,372.90625 L 1431.4062,371.46875 z"
       id="rect3088" />
    <path
       style="fill:url(#linearGradient7127);fill-opacity:1;stroke:none;stroke-width:1;stroke-linecap:butt;stroke-linejoin:miter;stroke-miterlimit:4;stroke-dasharray:none;stroke-dashoffset:4;stroke-opacity:1;display:inline"
       d="M 1085,490 L 1115,490 L 1115,450 L 1085,450 L 1085,490 z"
       id="path4625"
       inkscape:export-filename="/Users/saman/Desktop/mn2_illo_wip2.png"
       inkscape:export-xdpi="90"
       inkscape:export-ydpi="90"
       sodipodi:nodetypes="ccccc" />
    <g
       id="g4778"
       style="fill:#d8d8d8;fill-opacity:1;display:inline"
       inkscape:export-filename="/Users/saman/Desktop/mn2_illo_wip2.png"
       inkscape:export-xdpi="90"
       inkscape:export-ydpi="90"
       transform="matrix(-1,0,0,1,2390,105)" />
    <g
       style="display:inline"
       id="g4785"
       transform="matrix(-1,0,0,1,2760,125)"
       inkscape:export-filename="/Users/saman/Desktop/mn2_illo_wip2.png"
       inkscape:export-xdpi="90"
       inkscape:export-ydpi="90" />
    <path
       style="fill:#000000;fill-opacity:0.09411765;stroke:none;stroke-width:1;stroke-linecap:butt;stroke-linejoin:miter;stroke-miterlimit:4;stroke-dasharray:none;stroke-dashoffset:4;stroke-opacity:1"
       d="M 1510,483 L 1510,500 L 1530,500 L 1530,483 L 1510,483 z M 1510,501 L 1510,503 L 1530,503 L 1530,501 L 1510,501 z M 1509,504 L 1509,507 L 1510,507 L 1510,520 L 1512,520 L 1512,507 L 1528,507 L 1528,520 L 1530,520 L 1530,507 L 1531,507 L 1531,504 L 1509,504 z M 1275,505 L 1275,530 L 1280,530 C 1280,532.76 1282.24,535 1285,535 C 1287.76,535 1290,532.76 1290,530 L 1310,530 C 1310,532.76 1312.24,535 1315,535 C 1317.76,535 1320,532.76 1320,530 L 1325,530 L 1325,515 L 1320,515 L 1315,510 L 1310,510 L 1310,505 L 1275,505 z M 1280,509 L 1305,509 L 1305,525 L 1280,525 L 1280,509 z M 1310,512 L 1314,512 L 1317,515 L 1310,515 L 1310,512 z M 1465,520 L 1460,525 L 1450,525 L 1450,535 L 1453.5625,535 C 1453.815,537.24521 1455.6877,539 1458,539 C 1460.3123,539 1462.185,537.24521 1462.4375,535 L 1477.5625,535 C 1477.815,537.24521 1479.6877,539 1482,539 C 1484.3123,539 1486.185,537.24521 1486.4375,535 L 1490,535 L 1490,525 L 1485,525 L 1480,520 L 1465,520 z M 1467,522 L 1471,522 L 1471,525 L 1464,525 L 1467,522 z M 1473,522 L 1479,522 L 1482,525 L 1473,525 L 1473,522 z"
       id="rect4874" />
    <path
       style="fill:#ffffff;fill-opacity:0.25098039;stroke:none;stroke-width:1;stroke-linecap:butt;stroke-linejoin:miter;stroke-miterlimit:4;stroke-dasharray:none;stroke-dashoffset:4;stroke-opacity:1"
       d="M 1343,500 L 1343,502 L 1351,502 L 1351,500 L 1343,500 z M 1363,500 L 1363,502 L 1371,502 L 1371,500 L 1363,500 z M 1383,500 L 1383,502 L 1391,502 L 1391,500 L 1383,500 z M 1280,509 L 1280,525 L 1305,525 L 1305,509 L 1280,509 z M 1310,512 L 1310,515 L 1317,515 L 1314,512 L 1310,512 z M 1467,522 L 1464,525 L 1471,525 L 1471,522 L 1467,522 z M 1473,522 L 1473,525 L 1482,525 L 1479,522 L 1473,522 z M 1112,551 L 1112,553 L 1120,553 L 1120,551 L 1112,551 z M 1132,551 L 1132,553 L 1140,553 L 1140,551 L 1132,551 z M 1152,551 L 1152,553 L 1160,553 L 1160,551 L 1152,551 z M 1172,551 L 1172,553 L 1180,553 L 1180,551 L 1172,551 z M 1192,551 L 1192,553 L 1200,553 L 1200,551 L 1192,551 z M 1212,551 L 1212,553 L 1220,553 L 1220,551 L 1212,551 z M 1232,551 L 1232,553 L 1240,553 L 1240,551 L 1232,551 z M 1252,551 L 1252,553 L 1260,553 L 1260,551 L 1252,551 z M 1272,551 L 1272,553 L 1280,553 L 1280,551 L 1272,551 z M 1292,551 L 1292,553 L 1300,553 L 1300,551 L 1292,551 z M 1312,551 L 1312,553 L 1320,553 L 1320,551 L 1312,551 z M 1332,551 L 1332,553 L 1340,553 L 1340,551 L 1332,551 z M 1352,551 L 1352,553 L 1360,553 L 1360,551 L 1352,551 z M 1372,551 L 1372,553 L 1380,553 L 1380,551 L 1372,551 z M 1392,551 L 1392,553 L 1400,553 L 1400,551 L 1392,551 z M 1412,551 L 1412,553 L 1420,553 L 1420,551 L 1412,551 z M 1432,551 L 1432,553 L 1440,553 L 1440,551 L 1432,551 z M 1452,551 L 1452,553 L 1460,553 L 1460,551 L 1452,551 z M 1472,551 L 1472,553 L 1480,553 L 1480,551 L 1472,551 z M 1492,551 L 1492,553 L 1500,553 L 1500,551 L 1492,551 z"
       id="rect4952" />
    <g
       id="g5220"
       style="fill:#2c2c2c;fill-opacity:1;display:inline"
       transform="translate(337.00001,-5)"
       inkscape:export-filename="/Users/saman/Desktop/mn2_illo_wip2.png"
       inkscape:export-xdpi="90"
       inkscape:export-ydpi="90" />
    <path
       style="fill:#ffffff;fill-opacity:0.1254902;stroke:none;stroke-width:1;stroke-linecap:square;stroke-linejoin:miter;stroke-miterlimit:4;stroke-dasharray:none;stroke-dashoffset:4;stroke-opacity:1"
       d="M 1360,130 C 1355.2838,130 1351.3688,133.3131 1350.3438,137.71875 C 1349.3003,137.03489 1348.0585,136.625 1346.7188,136.625 C 1343.056,136.625 1340.0938,139.61849 1340.0938,143.28125 C 1340.0937,146.94401 1343.0559,149.90625 1346.7188,149.90625 L 1373.2812,149.90625 C 1376.944,149.90625 1379.9062,146.94401 1379.9062,143.28125 C 1379.9063,139.61849 1376.9441,136.625 1373.2812,136.625 C 1371.9414,136.625 1370.6997,137.03489 1369.6562,137.71875 C 1368.6313,133.3131 1364.7162,130 1360,130 z M 1470,145 C 1465.2838,145 1461.3687,148.3131 1460.3438,152.71875 C 1459.3003,152.03489 1458.0585,151.625 1456.7188,151.625 C 1453.056,151.625 1450.0938,154.61849 1450.0938,158.28125 C 1450.0938,161.94401 1453.0559,164.90625 1456.7188,164.90625 L 1483.2812,164.90625 C 1486.944,164.90625 1489.9063,161.94401 1489.9062,158.28125 C 1489.9062,154.61849 1486.9441,151.625 1483.2812,151.625 C 1481.9414,151.625 1480.6997,152.03489 1479.6562,152.71875 C 1478.6312,148.3131 1474.7162,145 1470,145 z M 1170,160 C 1165.2838,160 1161.3688,163.3131 1160.3438,167.71875 C 1159.3003,167.03489 1158.0585,166.625 1156.7188,166.625 C 1153.056,166.625 1150.0938,169.61849 1150.0938,173.28125 C 1150.0937,176.94401 1153.0559,179.90625 1156.7188,179.90625 L 1183.2812,179.90625 C 1186.944,179.90625 1189.9062,176.94401 1189.9062,173.28125 C 1189.9063,169.61849 1186.9441,166.625 1183.2812,166.625 C 1181.9414,166.625 1180.6997,167.03489 1179.6562,167.71875 C 1178.6312,163.3131 1174.7162,160 1170,160 z M 1534.6562,160.09375 C 1529.94,160.09375 1526.025,163.40686 1525,167.8125 C 1523.9565,167.12864 1522.7461,166.71875 1521.4062,166.71875 C 1517.7435,166.71875 1514.75,169.71224 1514.75,173.375 C 1514.75,177.03776 1517.7435,180 1521.4062,180 L 1547.9375,180 C 1551.6003,180 1554.5625,177.03776 1554.5625,173.375 C 1554.5625,169.71224 1551.6002,166.71875 1547.9375,166.71875 C 1546.5976,166.71875 1545.3559,167.12864 1544.3125,167.8125 C 1543.2875,163.40685 1539.3726,160.09375 1534.6562,160.09375 z M 1205,180 C 1200.1424,180 1195.9124,182.76181 1193.8438,186.8125 C 1192.2606,185.73124 1190.3447,185.09375 1188.2812,185.09375 C 1183.565,185.09375 1179.6188,188.40685 1178.5938,192.8125 C 1177.5502,192.12864 1176.3399,191.71875 1175,191.71875 C 1171.3373,191.71875 1168.375,194.71224 1168.375,198.375 C 1168.3751,202.03776 1171.3373,205 1175,205 L 1220,205 C 1223.726,205 1226.75,201.97601 1226.75,198.25 C 1226.7501,194.524 1223.7261,191.5 1220,191.5 C 1219.1033,191.5 1218.2518,191.68205 1217.4688,192 C 1217.2045,185.33282 1211.7316,180 1205,180 z M 1315,180 C 1308.2684,180 1302.7956,185.33282 1302.5312,192 C 1301.7481,191.68205 1300.8967,191.5 1300,191.5 C 1296.2739,191.5 1293.2499,194.524 1293.25,198.25 C 1293.25,201.97601 1296.274,205 1300,205 L 1345,205 C 1348.6627,205 1351.6249,202.03776 1351.625,198.375 C 1351.625,194.71224 1348.6627,191.71875 1345,191.71875 C 1343.6601,191.71875 1342.4498,192.12864 1341.4062,192.8125 C 1340.3812,188.40685 1336.435,185.09375 1331.7188,185.09375 C 1329.6554,185.09375 1327.7395,185.73124 1326.1562,186.8125 C 1324.0876,182.76181 1319.8576,180 1315,180 z M 1440,180 C 1433.2684,180 1427.7955,185.33282 1427.5312,192 C 1426.7482,191.68205 1425.8967,191.5 1425,191.5 C 1421.274,191.5 1418.25,194.524 1418.25,198.25 C 1418.25,201.97601 1421.274,205 1425,205 L 1470,205 C 1473.6627,205 1476.625,202.03776 1476.625,198.375 C 1476.625,194.71224 1473.6627,191.71875 1470,191.71875 C 1468.6601,191.71875 1467.4497,192.12864 1466.4062,192.8125 C 1465.3812,188.40685 1461.435,185.09375 1456.7188,185.09375 C 1454.6554,185.09375 1452.7395,185.73124 1451.1562,186.8125 C 1449.0876,182.76181 1444.8577,180 1440,180 z M 1507.75,184.5 C 1502.9085,184.5 1498.8524,187.85954 1497.7812,192.375 C 1496.9368,191.97355 1495.9967,191.75 1495,191.75 C 1491.412,191.75001 1488.5,194.662 1488.5,198.25 C 1488.5,201.838 1491.412,205 1495,205 L 1507.75,205 C 1513.408,205 1518,200.408 1518,194.75 C 1518,189.092 1513.408,184.5 1507.75,184.5 z M 1571.7188,185.09375 C 1567.0025,185.09375 1563.0875,188.40685 1562.0625,192.8125 C 1561.019,192.12864 1559.8085,191.71875 1558.4688,191.71875 C 1554.806,191.71875 1551.8125,194.71224 1551.8125,198.375 C 1551.8125,202.03776 1554.8059,205 1558.4688,205 L 1585,205 C 1588.6628,205 1591.625,202.03776 1591.625,198.375 C 1591.625,194.71224 1588.6628,191.71875 1585,191.71875 C 1583.6601,191.71875 1582.4497,192.12864 1581.4062,192.8125 C 1580.3812,188.40686 1576.435,185.09375 1571.7188,185.09375 z M 1099.9688,207.125 C 1095.1273,207.125 1091.0712,210.48454 1090,215 C 1089.1556,214.59854 1088.2153,214.375 1087.2188,214.375 C 1083.6308,214.375 1080.7187,217.287 1080.7188,220.875 C 1080.7188,224.463 1083.6306,227.625 1087.2188,227.625 L 1099.9688,227.625 C 1105.6267,227.625 1110.2187,223.033 1110.2188,217.375 C 1110.2188,211.717 1105.6266,207.125 1099.9688,207.125 z M 1458.2812,213.09375 C 1453.565,213.09375 1449.6188,216.40685 1448.5938,220.8125 C 1447.5503,220.12864 1446.3399,219.71875 1445,219.71875 C 1441.3372,219.71875 1438.375,222.71224 1438.375,226.375 C 1438.375,230.03776 1441.3372,233 1445,233 L 1471.5312,233 C 1475.194,233 1478.1875,230.03776 1478.1875,226.375 C 1478.1875,222.71224 1475.194,219.71875 1471.5312,219.71875 C 1470.1914,219.71875 1468.981,220.12864 1467.9375,220.8125 C 1466.9125,216.40685 1462.9976,213.09375 1458.2812,213.09375 z M 1316.7188,215.09375 C 1312.0025,215.09375 1308.0875,218.40685 1307.0625,222.8125 C 1306.019,222.12864 1304.8085,221.71875 1303.4688,221.71875 C 1299.806,221.71875 1296.8125,224.71224 1296.8125,228.375 C 1296.8125,232.03776 1299.8059,235 1303.4688,235 L 1330,235 C 1333.6628,235 1336.625,232.03776 1336.625,228.375 C 1336.625,224.71224 1333.6628,221.71875 1330,221.71875 C 1328.6601,221.71875 1327.4497,222.12864 1326.4062,222.8125 C 1325.3812,218.40685 1321.435,215.09375 1316.7188,215.09375 z M 1021.5312,260 C 1014.7997,260 1009.3267,265.33282 1009.0625,272 C 1008.2794,271.68205 1007.4281,271.5 1006.5312,271.5 C 1002.8053,271.5 999.78115,274.524 999.78125,278.25 C 999.78125,281.97601 1002.8054,285 1006.5312,285 L 1051.5312,285 C 1055.1939,285 1058.1562,282.03776 1058.1562,278.375 C 1058.1562,274.71224 1055.1939,271.71875 1051.5312,271.71875 C 1050.1914,271.71875 1048.981,272.12864 1047.9375,272.8125 C 1046.9125,268.40685 1042.9662,265.09375 1038.25,265.09375 C 1036.1867,265.09375 1034.2706,265.73124 1032.6875,266.8125 C 1030.6189,262.76181 1026.3889,260 1021.5312,260 z M 1123.5,287.75 C 1117.842,287.75 1113.25,292.342 1113.25,298 C 1113.25,303.658 1117.842,308.25 1123.5,308.25 L 1136.25,308.25 C 1139.838,308.25 1142.75,305.088 1142.75,301.5 C 1142.75,297.912 1139.838,295 1136.25,295 C 1135.2533,295 1134.3131,295.22354 1133.4688,295.625 C 1132.3976,291.10954 1128.3415,287.75 1123.5,287.75 z"
       id="path6405" />
    <g
       id="g8620"
       style="fill:#e8e8e8;fill-opacity:1"
       transform="translate(0,105)">
      <g
         id="g9439"
         transform="translate(-679.99999,-60)"
         style="fill:#e8e8e8;fill-opacity:1;display:inline">
        <g
           transform="translate(-150,130)"
           id="g9443"
           style="fill:#e8e8e8;fill-opacity:1"
           inkscape:export-filename="/Users/saman/Desktop/mn2_illo_wip2.png"
           inkscape:export-xdpi="90"
           inkscape:export-ydpi="90" />
        <g
           style="fill:#e8e8e8;fill-opacity:1"
           id="g9458"
           transform="translate(-150,150)"
           inkscape:export-filename="/Users/saman/Desktop/mn2_illo_wip2.png"
           inkscape:export-xdpi="90"
           inkscape:export-ydpi="90" />
      </g>
    </g>
    <path
       style="fill:#ffffff;fill-opacity:0.25098039;stroke:none;stroke-width:1;stroke-linecap:square;stroke-linejoin:miter;stroke-miterlimit:4;stroke-dasharray:none;stroke-dashoffset:4;stroke-opacity:1"
       d="M 1220,280 L 1220,285 L 1225,285 L 1225,280 L 1220,280 z M 1230,280 L 1230,285 L 1235,285 L 1235,280 L 1230,280 z M 1240,280 L 1240,285 L 1245,285 L 1245,280 L 1240,280 z M 1250,280 L 1250,285 L 1255,285 L 1255,280 L 1250,280 z M 1220,290 L 1220,295 L 1225,295 L 1225,290 L 1220,290 z M 1230,290 L 1230,295 L 1235,295 L 1235,290 L 1230,290 z M 1240,290 L 1240,295 L 1245,295 L 1245,290 L 1240,290 z M 1250,290 L 1250,295 L 1255,295 L 1255,290 L 1250,290 z M 1220,300 L 1220,305 L 1225,305 L 1225,300 L 1220,300 z M 1230,300 L 1230,305 L 1235,305 L 1235,300 L 1230,300 z M 1240,300 L 1240,305 L 1245,305 L 1245,300 L 1240,300 z M 1250,300 L 1250,305 L 1255,305 L 1255,300 L 1250,300 z M 1540,300 L 1540,305 L 1545,305 L 1545,300 L 1540,300 z M 1550,300 L 1550,305 L 1555,305 L 1555,300 L 1550,300 z M 1560,300 L 1560,305 L 1565,305 L 1565,300 L 1560,300 z M 1570,300 L 1570,305 L 1575,305 L 1575,300 L 1570,300 z M 1580,300 L 1580,305 L 1585,305 L 1585,300 L 1580,300 z M 1220,310 L 1220,315 L 1225,315 L 1225,310 L 1220,310 z M 1230,310 L 1230,315 L 1235,315 L 1235,310 L 1230,310 z M 1240,310 L 1240,315 L 1245,315 L 1245,310 L 1240,310 z M 1250,310 L 1250,315 L 1255,315 L 1255,310 L 1250,310 z M 1540,310 L 1540,315 L 1545,315 L 1545,310 L 1540,310 z M 1550,310 L 1550,315 L 1555,315 L 1555,310 L 1550,310 z M 1560,310 L 1560,315 L 1565,315 L 1565,310 L 1560,310 z M 1570,310 L 1570,315 L 1575,315 L 1575,310 L 1570,310 z M 1580,310 L 1580,315 L 1585,315 L 1585,310 L 1580,310 z M 1220,320 L 1220,325 L 1225,325 L 1225,320 L 1220,320 z M 1230,320 L 1230,325 L 1235,325 L 1235,320 L 1230,320 z M 1240,320 L 1240,325 L 1245,325 L 1245,320 L 1240,320 z M 1250,320 L 1250,325 L 1255,325 L 1255,320 L 1250,320 z M 1540,320 L 1540,325 L 1545,325 L 1545,320 L 1540,320 z M 1550,320 L 1550,325 L 1555,325 L 1555,320 L 1550,320 z M 1560,320 L 1560,325 L 1565,325 L 1565,320 L 1560,320 z M 1570,320 L 1570,325 L 1575,325 L 1575,320 L 1570,320 z M 1580,320 L 1580,325 L 1585,325 L 1585,320 L 1580,320 z M 1360,325 L 1360,330 L 1365,330 L 1365,325 L 1360,325 z M 1370,325 L 1370,330 L 1375,330 L 1375,325 L 1370,325 z M 1380,325 L 1380,330 L 1385,330 L 1385,325 L 1380,325 z M 1390,325 L 1390,330 L 1395,330 L 1395,325 L 1390,325 z M 1400,325 L 1400,330 L 1405,330 L 1405,325 L 1400,325 z M 1220,330 L 1220,335 L 1225,335 L 1225,330 L 1220,330 z M 1230,330 L 1230,335 L 1235,335 L 1235,330 L 1230,330 z M 1240,330 L 1240,335 L 1245,335 L 1245,330 L 1240,330 z M 1250,330 L 1250,335 L 1255,335 L 1255,330 L 1250,330 z M 1540,330 L 1540,335 L 1545,335 L 1545,330 L 1540,330 z M 1550,330 L 1550,335 L 1555,335 L 1555,330 L 1550,330 z M 1560,330 L 1560,335 L 1565,335 L 1565,330 L 1560,330 z M 1570,330 L 1570,335 L 1575,335 L 1575,330 L 1570,330 z M 1580,330 L 1580,335 L 1585,335 L 1585,330 L 1580,330 z M 1360,335 L 1360,340 L 1365,340 L 1365,335 L 1360,335 z M 1370,335 L 1370,340 L 1375,340 L 1375,335 L 1370,335 z M 1380,335 L 1380,340 L 1385,340 L 1385,335 L 1380,335 z M 1390,335 L 1390,340 L 1395,340 L 1395,335 L 1390,335 z M 1400,335 L 1400,340 L 1405,340 L 1405,335 L 1400,335 z M 1220,340 L 1220,345 L 1225,345 L 1225,340 L 1220,340 z M 1230,340 L 1230,345 L 1235,345 L 1235,340 L 1230,340 z M 1240,340 L 1240,345 L 1245,345 L 1245,340 L 1240,340 z M 1250,340 L 1250,345 L 1255,345 L 1255,340 L 1250,340 z M 1360,345 L 1360,350 L 1365,350 L 1365,345 L 1360,345 z M 1370,345 L 1370,350 L 1375,350 L 1375,345 L 1370,345 z M 1380,345 L 1380,350 L 1385,350 L 1385,345 L 1380,345 z M 1390,345 L 1390,350 L 1395,350 L 1395,345 L 1390,345 z M 1400,345 L 1400,350 L 1405,350 L 1405,345 L 1400,345 z M 1360,355 L 1360,360 L 1365,360 L 1365,355 L 1360,355 z M 1370,355 L 1370,360 L 1375,360 L 1375,355 L 1370,355 z M 1380,355 L 1380,360 L 1385,360 L 1385,355 L 1380,355 z M 1390,355 L 1390,360 L 1395,360 L 1395,355 L 1390,355 z M 1400,355 L 1400,360 L 1405,360 L 1405,355 L 1400,355 z M 1360,365 L 1360,370 L 1365,370 L 1365,365 L 1360,365 z M 1370,365 L 1370,370 L 1375,370 L 1375,365 L 1370,365 z M 1380,365 L 1380,370 L 1385,370 L 1385,365 L 1380,365 z M 1390,365 L 1390,370 L 1395,370 L 1395,365 L 1390,365 z M 1400,365 L 1400,370 L 1405,370 L 1405,365 L 1400,365 z M 1360,375 L 1360,380 L 1365,380 L 1365,375 L 1360,375 z M 1370,375 L 1370,380 L 1375,380 L 1375,375 L 1370,375 z M 1380,375 L 1380,380 L 1385,380 L 1385,375 L 1380,375 z M 1390,375 L 1390,380 L 1395,380 L 1395,375 L 1390,375 z M 1400,375 L 1400,380 L 1405,380 L 1405,375 L 1400,375 z M 1360,385 L 1360,390 L 1365,390 L 1365,385 L 1360,385 z M 1370,385 L 1370,390 L 1375,390 L 1375,385 L 1370,385 z M 1380,385 L 1380,390 L 1385,390 L 1385,385 L 1380,385 z M 1390,385 L 1390,390 L 1395,390 L 1395,385 L 1390,385 z M 1400,385 L 1400,390 L 1405,390 L 1405,385 L 1400,385 z M 1455,385 L 1455,390 L 1460,390 L 1460,385 L 1455,385 z M 1465,385 L 1465,390 L 1470,390 L 1470,385 L 1465,385 z M 1475,385 L 1475,390 L 1480,390 L 1480,385 L 1475,385 z M 1515,385 L 1515,390 L 1520,390 L 1520,385 L 1515,385 z M 1525,385 L 1525,390 L 1530,390 L 1530,385 L 1525,385 z M 1535,385 L 1535,390 L 1540,390 L 1540,385 L 1535,385 z M 1545,385 L 1545,390 L 1550,390 L 1550,385 L 1545,385 z M 1340,395 L 1340,400 L 1345,400 L 1345,395 L 1340,395 z M 1360,395 L 1360,400 L 1365,400 L 1365,395 L 1360,395 z M 1370,395 L 1370,400 L 1375,400 L 1375,395 L 1370,395 z M 1380,395 L 1380,400 L 1385,400 L 1385,395 L 1380,395 z M 1390,395 L 1390,400 L 1395,400 L 1395,395 L 1390,395 z M 1400,395 L 1400,400 L 1405,400 L 1405,395 L 1400,395 z M 1455,395 L 1455,400 L 1460,400 L 1460,395 L 1455,395 z M 1465,395 L 1465,400 L 1470,400 L 1470,395 L 1465,395 z M 1475,395 L 1475,400 L 1480,400 L 1480,395 L 1475,395 z M 1515,395 L 1515,400 L 1520,400 L 1520,395 L 1515,395 z M 1525,395 L 1525,400 L 1530,400 L 1530,395 L 1525,395 z M 1535,395 L 1535,400 L 1540,400 L 1540,395 L 1535,395 z M 1545,395 L 1545,400 L 1550,400 L 1550,395 L 1545,395 z M 1130,400 L 1130,405 L 1135,405 L 1135,400 L 1130,400 z M 1140,400 L 1140,405 L 1145,405 L 1145,400 L 1140,400 z M 1150,400 L 1150,405 L 1155,405 L 1155,400 L 1150,400 z M 1240,400 L 1240,405 L 1245,405 L 1245,400 L 1240,400 z M 1250,400 L 1250,405 L 1255,405 L 1255,400 L 1250,400 z M 1330,405 L 1330,410 L 1335,410 L 1335,405 L 1330,405 z M 1340,405 L 1340,410 L 1345,410 L 1345,405 L 1340,405 z M 1360,405 L 1360,410 L 1365,410 L 1365,405 L 1360,405 z M 1370,405 L 1370,410 L 1375,410 L 1375,405 L 1370,405 z M 1380,405 L 1380,410 L 1385,410 L 1385,405 L 1380,405 z M 1455,405 L 1455,410 L 1460,410 L 1460,405 L 1455,405 z M 1465,405 L 1465,410 L 1470,410 L 1470,405 L 1465,405 z M 1475,405 L 1475,410 L 1480,410 L 1480,405 L 1475,405 z M 1515,405 L 1515,410 L 1520,410 L 1520,405 L 1515,405 z M 1525,405 L 1525,410 L 1530,410 L 1530,405 L 1525,405 z M 1535,405 L 1535,410 L 1540,410 L 1540,405 L 1535,405 z M 1545,405 L 1545,410 L 1550,410 L 1550,405 L 1545,405 z M 1130,410 L 1130,415 L 1135,415 L 1135,410 L 1130,410 z M 1140,410 L 1140,415 L 1145,415 L 1145,410 L 1140,410 z M 1150,410 L 1150,415 L 1155,415 L 1155,410 L 1150,410 z M 1240,410 L 1240,415 L 1245,415 L 1245,410 L 1240,410 z M 1250,410 L 1250,415 L 1255,415 L 1255,410 L 1250,410 z M 1330,415 L 1330,420 L 1335,420 L 1335,415 L 1330,415 z M 1340,415 L 1340,420 L 1345,420 L 1345,415 L 1340,415 z M 1360,415 L 1360,420 L 1365,420 L 1365,415 L 1360,415 z M 1370,415 L 1370,420 L 1375,420 L 1375,415 L 1370,415 z M 1380,415 L 1380,420 L 1385,420 L 1385,415 L 1380,415 z M 1515,415 L 1515,420 L 1520,420 L 1520,415 L 1515,415 z M 1525,415 L 1525,420 L 1530,420 L 1530,415 L 1525,415 z M 1535,415 L 1535,420 L 1540,420 L 1540,415 L 1535,415 z M 1545,415 L 1545,420 L 1550,420 L 1550,415 L 1545,415 z M 1130,420 L 1130,425 L 1135,425 L 1135,420 L 1130,420 z M 1140,420 L 1140,425 L 1145,425 L 1145,420 L 1140,420 z M 1150,420 L 1150,425 L 1155,425 L 1155,420 L 1150,420 z M 1240,420 L 1240,425 L 1245,425 L 1245,420 L 1240,420 z M 1250,420 L 1250,425 L 1255,425 L 1255,420 L 1250,420 z M 1360,425 L 1360,430 L 1365,430 L 1365,425 L 1360,425 z M 1370,425 L 1370,430 L 1375,430 L 1375,425 L 1370,425 z M 1380,425 L 1380,430 L 1385,430 L 1385,425 L 1380,425 z M 1515,425 L 1515,430 L 1520,430 L 1520,425 L 1515,425 z M 1525,425 L 1525,430 L 1530,430 L 1530,425 L 1525,425 z M 1535,425 L 1535,430 L 1540,430 L 1540,425 L 1535,425 z M 1545,425 L 1545,430 L 1550,430 L 1550,425 L 1545,425 z M 1130,430 L 1130,435 L 1135,435 L 1135,430 L 1130,430 z M 1140,430 L 1140,435 L 1145,435 L 1145,430 L 1140,430 z M 1150,430 L 1150,435 L 1155,435 L 1155,430 L 1150,430 z M 1360,435 L 1360,440 L 1365,440 L 1365,435 L 1360,435 z M 1370,435 L 1370,440 L 1375,440 L 1375,435 L 1370,435 z M 1380,435 L 1380,440 L 1385,440 L 1385,435 L 1380,435 z M 1535,435 L 1535,440 L 1540,440 L 1540,435 L 1535,435 z M 1545,435 L 1545,440 L 1550,440 L 1550,435 L 1545,435 z M 1060,440 L 1060,445 L 1065,445 L 1065,440 L 1060,440 z M 1070,440 L 1070,445 L 1075,445 L 1075,440 L 1070,440 z M 1130,440 L 1130,445 L 1135,445 L 1135,440 L 1130,440 z M 1140,440 L 1140,445 L 1145,445 L 1145,440 L 1140,440 z M 1150,440 L 1150,445 L 1155,445 L 1155,440 L 1150,440 z M 1285,440 L 1285,445 L 1290,445 L 1290,440 L 1285,440 z M 1295,440 L 1295,445 L 1300,445 L 1300,440 L 1295,440 z M 1305,440 L 1305,445 L 1310,445 L 1310,440 L 1305,440 z M 1315,440 L 1315,445 L 1320,445 L 1320,440 L 1315,440 z M 1325,440 L 1325,445 L 1330,445 L 1330,440 L 1325,440 z M 1360,445 L 1360,450 L 1365,450 L 1365,445 L 1360,445 z M 1370,445 L 1370,450 L 1375,450 L 1375,445 L 1370,445 z M 1380,445 L 1380,450 L 1385,450 L 1385,445 L 1380,445 z M 1535,445 L 1535,450 L 1540,450 L 1540,445 L 1535,445 z M 1545,445 L 1545,450 L 1550,450 L 1550,445 L 1545,445 z M 1060,450 L 1060,455 L 1065,455 L 1065,450 L 1060,450 z M 1070,450 L 1070,455 L 1075,455 L 1075,450 L 1070,450 z M 1130,450 L 1130,455 L 1135,455 L 1135,450 L 1130,450 z M 1140,450 L 1140,455 L 1145,455 L 1145,450 L 1140,450 z M 1150,450 L 1150,455 L 1155,455 L 1155,450 L 1150,450 z M 1285,450 L 1285,455 L 1290,455 L 1290,450 L 1285,450 z M 1295,450 L 1295,455 L 1300,455 L 1300,450 L 1295,450 z M 1305,450 L 1305,455 L 1310,455 L 1310,450 L 1305,450 z M 1315,450 L 1315,455 L 1320,455 L 1320,450 L 1315,450 z M 1325,450 L 1325,455 L 1330,455 L 1330,450 L 1325,450 z M 1360,455 L 1360,460 L 1365,460 L 1365,455 L 1360,455 z M 1370,455 L 1370,460 L 1375,460 L 1375,455 L 1370,455 z M 1380,455 L 1380,460 L 1385,460 L 1385,455 L 1380,455 z M 1425,455 L 1425,460 L 1430,460 L 1430,455 L 1425,455 z M 1435,455 L 1435,460 L 1440,460 L 1440,455 L 1435,455 z M 1535,455 L 1535,460 L 1540,460 L 1540,455 L 1535,455 z M 1545,455 L 1545,460 L 1550,460 L 1550,455 L 1545,455 z M 1570,455 L 1570,460 L 1575,460 L 1575,455 L 1570,455 z M 1580,455 L 1580,460 L 1585,460 L 1585,455 L 1580,455 z M 1060,460 L 1060,465 L 1065,465 L 1065,460 L 1060,460 z M 1070,460 L 1070,465 L 1075,465 L 1075,460 L 1070,460 z M 1130,460 L 1130,465 L 1135,465 L 1135,460 L 1130,460 z M 1140,460 L 1140,465 L 1145,465 L 1145,460 L 1140,460 z M 1150,460 L 1150,465 L 1155,465 L 1155,460 L 1150,460 z M 1285,460 L 1285,465 L 1290,465 L 1290,460 L 1285,460 z M 1295,460 L 1295,465 L 1300,465 L 1300,460 L 1295,460 z M 1305,460 L 1305,465 L 1310,465 L 1310,460 L 1305,460 z M 1315,460 L 1315,465 L 1320,465 L 1320,460 L 1315,460 z M 1325,460 L 1325,465 L 1330,465 L 1330,460 L 1325,460 z M 965,465 L 965,470 L 970,470 L 970,465 L 965,465 z M 975,465 L 975,470 L 980,470 L 980,465 L 975,465 z M 1435,465 L 1435,470 L 1440,470 L 1440,465 L 1435,465 z M 1535,465 L 1535,470 L 1540,470 L 1540,465 L 1535,465 z M 1545,465 L 1545,470 L 1550,470 L 1550,465 L 1545,465 z M 1580,465 L 1580,470 L 1585,470 L 1585,465 L 1580,465 z M 1130,470 L 1130,475 L 1135,475 L 1135,470 L 1130,470 z M 1140,470 L 1140,475 L 1145,475 L 1145,470 L 1140,470 z M 1150,470 L 1150,475 L 1155,475 L 1155,470 L 1150,470 z M 1285,470 L 1285,475 L 1290,475 L 1290,470 L 1285,470 z M 1295,470 L 1295,475 L 1300,475 L 1300,470 L 1295,470 z M 1305,470 L 1305,475 L 1310,475 L 1310,470 L 1305,470 z M 1315,470 L 1315,475 L 1320,475 L 1320,470 L 1315,470 z M 1325,470 L 1325,475 L 1330,475 L 1330,470 L 1325,470 z M 1405,470 L 1405,475 L 1410,475 L 1410,470 L 1405,470 z M 1415,470 L 1415,475 L 1420,475 L 1420,470 L 1415,470 z M 965,475 L 965,480 L 970,480 L 970,475 L 965,475 z M 975,475 L 975,480 L 980,480 L 980,475 L 975,475 z M 1580,475 L 1580,480 L 1585,480 L 1585,475 L 1580,475 z M 1130,480 L 1130,485 L 1135,485 L 1135,480 L 1130,480 z M 1140,480 L 1140,485 L 1145,485 L 1145,480 L 1140,480 z M 1150,480 L 1150,485 L 1155,485 L 1155,480 L 1150,480 z M 1415,480 L 1415,485 L 1420,485 L 1420,480 L 1415,480 z M 965,485 L 965,490 L 970,490 L 970,485 L 965,485 z M 975,485 L 975,490 L 980,490 L 980,485 L 975,485 z M 1130,490 L 1130,495 L 1135,495 L 1135,490 L 1130,490 z M 1140,490 L 1140,495 L 1145,495 L 1145,490 L 1140,490 z M 1150,490 L 1150,495 L 1155,495 L 1155,490 L 1150,490 z M 1130,500 L 1130,505 L 1135,505 L 1135,500 L 1130,500 z M 1140,500 L 1140,505 L 1145,505 L 1145,500 L 1140,500 z M 1150,500 L 1150,505 L 1155,505 L 1155,500 L 1150,500 z M 1130,510 L 1130,515 L 1135,515 L 1135,510 L 1130,510 z M 1140,510 L 1140,515 L 1145,515 L 1145,510 L 1140,510 z M 1150,510 L 1150,515 L 1155,515 L 1155,510 L 1150,510 z M 1065,530 L 1065,535 L 1070,535 L 1070,530 L 1065,530 z M 1075,530 L 1075,535 L 1080,535 L 1080,530 L 1075,530 z M 1085,530 L 1085,535 L 1090,535 L 1090,530 L 1085,530 z M 1510,530 L 1510,535 L 1515,535 L 1515,530 L 1510,530 z M 1520,530 L 1520,535 L 1525,535 L 1525,530 L 1520,530 z M 1530,530 L 1530,535 L 1535,535 L 1535,530 L 1530,530 z M 1065,540 L 1065,545 L 1070,545 L 1070,540 L 1065,540 z M 1075,540 L 1075,545 L 1080,545 L 1080,540 L 1075,540 z M 1085,540 L 1085,545 L 1090,545 L 1090,540 L 1085,540 z M 1510,540 L 1510,545 L 1515,545 L 1515,540 L 1510,540 z M 1520,540 L 1520,545 L 1525,545 L 1525,540 L 1520,540 z M 1530,540 L 1530,545 L 1535,545 L 1535,540 L 1530,540 z M 1065,550 L 1065,555 L 1070,555 L 1070,550 L 1065,550 z M 1075,550 L 1075,555 L 1080,555 L 1080,550 L 1075,550 z M 1085,550 L 1085,555 L 1090,555 L 1090,550 L 1085,550 z M 1510,550 L 1510,555 L 1515,555 L 1515,550 L 1510,550 z M 1520,550 L 1520,555 L 1525,555 L 1525,550 L 1520,550 z M 1530,550 L 1530,555 L 1535,555 L 1535,550 L 1530,550 z M 1065,560 L 1065,565 L 1070,565 L 1070,560 L 1065,560 z M 1075,560 L 1075,565 L 1080,565 L 1080,560 L 1075,560 z M 1085,560 L 1085,565 L 1090,565 L 1090,560 L 1085,560 z M 1510,560 L 1510,565 L 1515,565 L 1515,560 L 1510,560 z M 1520,560 L 1520,565 L 1525,565 L 1525,560 L 1520,560 z M 1530,560 L 1530,565 L 1535,565 L 1535,560 L 1530,560 z"
       id="rect8514" />
  </g>
  <g
     inkscape:groupmode="layer"
     id="layer3"
     inkscape:label="Trash"
     style="display:inline">
    <path
       style="opacity:1;fill:#ffffff;fill-opacity:0.1254902;fill-rule:nonzero;stroke:none;stroke-width:1;stroke-linecap:square;stroke-linejoin:miter;marker:none;marker-start:none;marker-mid:none;marker-end:none;stroke-miterlimit:4;stroke-dasharray:none;stroke-dashoffset:4;stroke-opacity:1;visibility:visible;display:inline;overflow:visible;enable-background:accumulate"
       d="M 25,0 L 100,75 L 110,75 L 35,0 L 25,0 z M 55,0 L 210,155 L 210,145 L 65,0 L 55,0 z M 85,0 L 210,125 L 210,115 L 95,0 L 85,0 z M 115,0 L 210,95 L 210,85 L 125,0 L 115,0 z M 145,0 L 210,65 L 210,55 L 185,30 L 155,0 L 145,0 z M 175,0 L 185,10 L 185,0 L 175,0 z M 25,20 L 25,30 L 80,85 L 80,75 L 25,20 z M 0,30 L 0,35 L 80,115 L 80,105 L 5,30 L 0,30 z M 205,30 L 210,35 L 210,30 L 205,30 z M 0,55 L 0,65 L 145,210 L 155,210 L 0,55 z M 0,85 L 0,95 L 115,210 L 125,210 L 0,85 z M 130,95 L 130,105 L 205,180 L 210,180 L 210,175 L 130,95 z M 0,115 L 0,125 L 85,210 L 95,210 L 0,115 z M 130,125 L 130,135 L 185,190 L 185,180 L 130,125 z M 100,135 L 175,210 L 185,210 L 110,135 L 100,135 z"
       id="rect3769"
       sodipodi:nodetypes="cccccccccccccccccccccccccccccccccccccccccccccccccccccccccccccccccccccccccccc"
       inkscape:export-xdpi="90"
       inkscape:export-ydpi="90"
       inkscape:export-filename="/var/www/mn/profiles/managingnews/themes/jake/images/background_trash.png" />
    <g
       id="g3675"
       transform="translate(80,65)"
       inkscape:export-filename="/var/www/mn/profiles/managingnews/themes/jake/images/background_trash.png"
       inkscape:export-xdpi="90"
       inkscape:export-ydpi="90">
      <path
         style="fill:#ffffff;fill-opacity:0.25098039;fill-rule:nonzero;stroke:none;stroke-width:1;stroke-linecap:square;stroke-linejoin:miter;marker:none;marker-start:none;marker-mid:none;marker-end:none;stroke-miterlimit:4;stroke-dasharray:none;stroke-dashoffset:4;stroke-opacity:1;visibility:visible;display:inline;overflow:visible;enable-background:accumulate"
         d="M 11,18.333333 C 10.448,18.333333 10,18.781333 10,19.333333 L 10,44 C 10,44.551998 10.448,45 11,45 L 29,45 C 29.551999,44.999998 30,44.552 30,44 L 30,23.666667 L 24.666667,23.666667 L 24.666667,18.333333 L 11,18.333333 z M 26,19.333333 L 26,22.333333 L 29,22.333333 L 26,19.333333 z M 17.59375,27 L 22.40625,27 L 22.4375,27.03125 L 20,28.5 L 19,30.21875 L 16.59375,28.8125 L 17.59375,27 z M 22.4375,27.0625 L 23.375,28.75 L 24.25,28.25 L 23.25,31.25 L 20,30.75 L 21,30.15625 L 20.375,29.125 L 22.4375,27.0625 z M 17.5,30.5 L 18.5,33.5 L 17.4375,32.875 L 16.8125,33.96875 L 14,33.5 L 16.5,34.5 L 18.5,34.5 L 18.5,37.0625 L 15.8125,37.0625 L 14,33.5 L 15.125,31.5 L 14.25,31 L 17.5,30.5 z M 24.9375,31.5625 L 26,33.5 L 24.21875,37.0625 L 21.5,37.0625 L 21.5,38 L 19.5,35.5 L 21.5,33 L 21.5,34.5 L 23,34.5 L 24,37 L 23.5,34.5 L 22.5,32.75 L 24.9375,31.5625 z"
         transform="matrix(1.4999999,0,0,1.4999999,-4.9999997,-7.4999996)"
         id="rect2683"
         sodipodi:nodetypes="ccccccccccccccccccccccccccccccccccccccccccccccccccccccc" />
      <path
         id="path2720"
         d="M 21.390625,32.999997 L 19.867188,35.742185 L 23.5,37.828122 L 25,35.249997 L 28.632813,33.070309 L 28.609375,32.999997 L 21.390625,32.999997 z M 28.65625,33.093747 L 25.5625,36.187497 L 26.476562,37.757809 L 25,38.624997 L 29.875,39.374997 L 31.375,34.874997 L 30.0625,35.648435 L 28.65625,33.093747 z M 21.25,38.249997 L 16.375,38.999997 L 17.664062,39.749997 L 16,42.749997 L 20.21875,43.453122 L 21.15625,41.812497 L 22.75,42.749997 L 21.25,38.249997 z M 16,42.749997 L 18.695312,48.070309 L 22.75,48.070309 L 22.75,44.249997 L 19.75,44.249997 L 16,42.749997 z M 32.382813,39.820309 L 28.726562,41.648435 L 30.25,44.249997 L 31,47.999997 L 29.5,44.249997 L 27.25,44.249997 L 27.25,41.999997 L 24.25,45.749997 L 27.25,49.499997 L 27.25,48.070309 L 31.304688,48.070309 L 34,42.749997 L 32.382813,39.820309 z"
         style="fill:#000000;fill-opacity:0.09411765;fill-rule:nonzero;stroke:none;stroke-width:1;stroke-linecap:square;stroke-linejoin:miter;marker:none;marker-start:none;marker-mid:none;marker-end:none;stroke-miterlimit:4;stroke-dasharray:none;stroke-dashoffset:4;stroke-opacity:1;visibility:visible;display:inline;overflow:visible;enable-background:accumulate"
         sodipodi:nodetypes="cccccccccccccccccccccccccccccccccccccccccc" />
    </g>
    <g
       id="g3876"
       clip-path="url(#clipPath3892)">
      <g
         id="g3803"
         transform="translate(185,170)"
         inkscape:export-filename="/var/www/mn/profiles/managingnews/themes/jake/images/background_trash.png"
         inkscape:export-xdpi="90"
         inkscape:export-ydpi="90">
        <path
           style="fill:#ffffff;fill-opacity:0.25098039;fill-rule:nonzero;stroke:none;stroke-width:1;stroke-linecap:square;stroke-linejoin:miter;marker:none;marker-start:none;marker-mid:none;marker-end:none;stroke-miterlimit:4;stroke-dasharray:none;stroke-dashoffset:4;stroke-opacity:1;visibility:visible;display:inline;overflow:visible;enable-background:accumulate"
           d="M 11,18.333333 C 10.448,18.333333 10,18.781333 10,19.333333 L 10,44 C 10,44.551998 10.448,45 11,45 L 29,45 C 29.551999,44.999998 30,44.552 30,44 L 30,23.666667 L 24.666667,23.666667 L 24.666667,18.333333 L 11,18.333333 z M 26,19.333333 L 26,22.333333 L 29,22.333333 L 26,19.333333 z M 17.59375,27 L 22.40625,27 L 22.4375,27.03125 L 20,28.5 L 19,30.21875 L 16.59375,28.8125 L 17.59375,27 z M 22.4375,27.0625 L 23.375,28.75 L 24.25,28.25 L 23.25,31.25 L 20,30.75 L 21,30.15625 L 20.375,29.125 L 22.4375,27.0625 z M 17.5,30.5 L 18.5,33.5 L 17.4375,32.875 L 16.8125,33.96875 L 14,33.5 L 16.5,34.5 L 18.5,34.5 L 18.5,37.0625 L 15.8125,37.0625 L 14,33.5 L 15.125,31.5 L 14.25,31 L 17.5,30.5 z M 24.9375,31.5625 L 26,33.5 L 24.21875,37.0625 L 21.5,37.0625 L 21.5,38 L 19.5,35.5 L 21.5,33 L 21.5,34.5 L 23,34.5 L 24,37 L 23.5,34.5 L 22.5,32.75 L 24.9375,31.5625 z"
           transform="matrix(1.4999999,0,0,1.4999999,-4.9999997,-7.4999996)"
           id="path3805"
           sodipodi:nodetypes="ccccccccccccccccccccccccccccccccccccccccccccccccccccccc" />
        <path
           id="path3807"
           d="M 21.390625,32.999997 L 19.867188,35.742185 L 23.5,37.828122 L 25,35.249997 L 28.632813,33.070309 L 28.609375,32.999997 L 21.390625,32.999997 z M 28.65625,33.093747 L 25.5625,36.187497 L 26.476562,37.757809 L 25,38.624997 L 29.875,39.374997 L 31.375,34.874997 L 30.0625,35.648435 L 28.65625,33.093747 z M 21.25,38.249997 L 16.375,38.999997 L 17.664062,39.749997 L 16,42.749997 L 20.21875,43.453122 L 21.15625,41.812497 L 22.75,42.749997 L 21.25,38.249997 z M 16,42.749997 L 18.695312,48.070309 L 22.75,48.070309 L 22.75,44.249997 L 19.75,44.249997 L 16,42.749997 z M 32.382813,39.820309 L 28.726562,41.648435 L 30.25,44.249997 L 31,47.999997 L 29.5,44.249997 L 27.25,44.249997 L 27.25,41.999997 L 24.25,45.749997 L 27.25,49.499997 L 27.25,48.070309 L 31.304688,48.070309 L 34,42.749997 L 32.382813,39.820309 z"
           style="fill:#000000;fill-opacity:0.09411765;fill-rule:nonzero;stroke:none;stroke-width:1;stroke-linecap:square;stroke-linejoin:miter;marker:none;marker-start:none;marker-mid:none;marker-end:none;stroke-miterlimit:4;stroke-dasharray:none;stroke-dashoffset:4;stroke-opacity:1;visibility:visible;display:inline;overflow:visible;enable-background:accumulate"
           sodipodi:nodetypes="cccccccccccccccccccccccccccccccccccccccccc" />
      </g>
      <g
         inkscape:export-ydpi="90"
         inkscape:export-xdpi="90"
         inkscape:export-filename="/var/www/mn/profiles/managingnews/themes/jake/images/background_trash.png"
         transform="translate(185,-40)"
         id="g3809">
        <path
           sodipodi:nodetypes="ccccccccccccccccccccccccccccccccccccccccccccccccccccccc"
           id="path3811"
           transform="matrix(1.4999999,0,0,1.4999999,-4.9999997,-7.4999996)"
           d="M 11,18.333333 C 10.448,18.333333 10,18.781333 10,19.333333 L 10,44 C 10,44.551998 10.448,45 11,45 L 29,45 C 29.551999,44.999998 30,44.552 30,44 L 30,23.666667 L 24.666667,23.666667 L 24.666667,18.333333 L 11,18.333333 z M 26,19.333333 L 26,22.333333 L 29,22.333333 L 26,19.333333 z M 17.59375,27 L 22.40625,27 L 22.4375,27.03125 L 20,28.5 L 19,30.21875 L 16.59375,28.8125 L 17.59375,27 z M 22.4375,27.0625 L 23.375,28.75 L 24.25,28.25 L 23.25,31.25 L 20,30.75 L 21,30.15625 L 20.375,29.125 L 22.4375,27.0625 z M 17.5,30.5 L 18.5,33.5 L 17.4375,32.875 L 16.8125,33.96875 L 14,33.5 L 16.5,34.5 L 18.5,34.5 L 18.5,37.0625 L 15.8125,37.0625 L 14,33.5 L 15.125,31.5 L 14.25,31 L 17.5,30.5 z M 24.9375,31.5625 L 26,33.5 L 24.21875,37.0625 L 21.5,37.0625 L 21.5,38 L 19.5,35.5 L 21.5,33 L 21.5,34.5 L 23,34.5 L 24,37 L 23.5,34.5 L 22.5,32.75 L 24.9375,31.5625 z"
           style="fill:#ffffff;fill-opacity:0.25098039;fill-rule:nonzero;stroke:none;stroke-width:1;stroke-linecap:square;stroke-linejoin:miter;marker:none;marker-start:none;marker-mid:none;marker-end:none;stroke-miterlimit:4;stroke-dasharray:none;stroke-dashoffset:4;stroke-opacity:1;visibility:visible;display:inline;overflow:visible;enable-background:accumulate" />
        <path
           sodipodi:nodetypes="cccccccccccccccccccccccccccccccccccccccccc"
           style="fill:#000000;fill-opacity:0.09411765;fill-rule:nonzero;stroke:none;stroke-width:1;stroke-linecap:square;stroke-linejoin:miter;marker:none;marker-start:none;marker-mid:none;marker-end:none;stroke-miterlimit:4;stroke-dasharray:none;stroke-dashoffset:4;stroke-opacity:1;visibility:visible;display:inline;overflow:visible;enable-background:accumulate"
           d="M 21.390625,32.999997 L 19.867188,35.742185 L 23.5,37.828122 L 25,35.249997 L 28.632813,33.070309 L 28.609375,32.999997 L 21.390625,32.999997 z M 28.65625,33.093747 L 25.5625,36.187497 L 26.476562,37.757809 L 25,38.624997 L 29.875,39.374997 L 31.375,34.874997 L 30.0625,35.648435 L 28.65625,33.093747 z M 21.25,38.249997 L 16.375,38.999997 L 17.664062,39.749997 L 16,42.749997 L 20.21875,43.453122 L 21.15625,41.812497 L 22.75,42.749997 L 21.25,38.249997 z M 16,42.749997 L 18.695312,48.070309 L 22.75,48.070309 L 22.75,44.249997 L 19.75,44.249997 L 16,42.749997 z M 32.382813,39.820309 L 28.726562,41.648435 L 30.25,44.249997 L 31,47.999997 L 29.5,44.249997 L 27.25,44.249997 L 27.25,41.999997 L 24.25,45.749997 L 27.25,49.499997 L 27.25,48.070309 L 31.304688,48.070309 L 34,42.749997 L 32.382813,39.820309 z"
           id="path3813" />
      </g>
      <g
         id="g3815"
         transform="translate(-25,-40)"
         inkscape:export-filename="/var/www/mn/profiles/managingnews/themes/jake/images/background_trash.png"
         inkscape:export-xdpi="90"
         inkscape:export-ydpi="90">
        <path
           style="fill:#ffffff;fill-opacity:0.25098039;fill-rule:nonzero;stroke:none;stroke-width:1;stroke-linecap:square;stroke-linejoin:miter;marker:none;marker-start:none;marker-mid:none;marker-end:none;stroke-miterlimit:4;stroke-dasharray:none;stroke-dashoffset:4;stroke-opacity:1;visibility:visible;display:inline;overflow:visible;enable-background:accumulate"
           d="M 11,18.333333 C 10.448,18.333333 10,18.781333 10,19.333333 L 10,44 C 10,44.551998 10.448,45 11,45 L 29,45 C 29.551999,44.999998 30,44.552 30,44 L 30,23.666667 L 24.666667,23.666667 L 24.666667,18.333333 L 11,18.333333 z M 26,19.333333 L 26,22.333333 L 29,22.333333 L 26,19.333333 z M 17.59375,27 L 22.40625,27 L 22.4375,27.03125 L 20,28.5 L 19,30.21875 L 16.59375,28.8125 L 17.59375,27 z M 22.4375,27.0625 L 23.375,28.75 L 24.25,28.25 L 23.25,31.25 L 20,30.75 L 21,30.15625 L 20.375,29.125 L 22.4375,27.0625 z M 17.5,30.5 L 18.5,33.5 L 17.4375,32.875 L 16.8125,33.96875 L 14,33.5 L 16.5,34.5 L 18.5,34.5 L 18.5,37.0625 L 15.8125,37.0625 L 14,33.5 L 15.125,31.5 L 14.25,31 L 17.5,30.5 z M 24.9375,31.5625 L 26,33.5 L 24.21875,37.0625 L 21.5,37.0625 L 21.5,38 L 19.5,35.5 L 21.5,33 L 21.5,34.5 L 23,34.5 L 24,37 L 23.5,34.5 L 22.5,32.75 L 24.9375,31.5625 z"
           transform="matrix(1.4999999,0,0,1.4999999,-4.9999997,-7.4999996)"
           id="path3817"
           sodipodi:nodetypes="ccccccccccccccccccccccccccccccccccccccccccccccccccccccc" />
        <path
           id="path3819"
           d="M 21.390625,32.999997 L 19.867188,35.742185 L 23.5,37.828122 L 25,35.249997 L 28.632813,33.070309 L 28.609375,32.999997 L 21.390625,32.999997 z M 28.65625,33.093747 L 25.5625,36.187497 L 26.476562,37.757809 L 25,38.624997 L 29.875,39.374997 L 31.375,34.874997 L 30.0625,35.648435 L 28.65625,33.093747 z M 21.25,38.249997 L 16.375,38.999997 L 17.664062,39.749997 L 16,42.749997 L 20.21875,43.453122 L 21.15625,41.812497 L 22.75,42.749997 L 21.25,38.249997 z M 16,42.749997 L 18.695312,48.070309 L 22.75,48.070309 L 22.75,44.249997 L 19.75,44.249997 L 16,42.749997 z M 32.382813,39.820309 L 28.726562,41.648435 L 30.25,44.249997 L 31,47.999997 L 29.5,44.249997 L 27.25,44.249997 L 27.25,41.999997 L 24.25,45.749997 L 27.25,49.499997 L 27.25,48.070309 L 31.304688,48.070309 L 34,42.749997 L 32.382813,39.820309 z"
           style="fill:#000000;fill-opacity:0.09411765;fill-rule:nonzero;stroke:none;stroke-width:1;stroke-linecap:square;stroke-linejoin:miter;marker:none;marker-start:none;marker-mid:none;marker-end:none;stroke-miterlimit:4;stroke-dasharray:none;stroke-dashoffset:4;stroke-opacity:1;visibility:visible;display:inline;overflow:visible;enable-background:accumulate"
           sodipodi:nodetypes="cccccccccccccccccccccccccccccccccccccccccc" />
      </g>
      <g
         inkscape:export-ydpi="90"
         inkscape:export-xdpi="90"
         inkscape:export-filename="/var/www/mn/profiles/managingnews/themes/jake/images/background_trash.png"
         transform="translate(-25,170)"
         id="g3821">
        <path
           sodipodi:nodetypes="ccccccccccccccccccccccccccccccccccccccccccccccccccccccc"
           id="path3823"
           transform="matrix(1.4999999,0,0,1.4999999,-4.9999997,-7.4999996)"
           d="M 11,18.333333 C 10.448,18.333333 10,18.781333 10,19.333333 L 10,44 C 10,44.551998 10.448,45 11,45 L 29,45 C 29.551999,44.999998 30,44.552 30,44 L 30,23.666667 L 24.666667,23.666667 L 24.666667,18.333333 L 11,18.333333 z M 26,19.333333 L 26,22.333333 L 29,22.333333 L 26,19.333333 z M 17.59375,27 L 22.40625,27 L 22.4375,27.03125 L 20,28.5 L 19,30.21875 L 16.59375,28.8125 L 17.59375,27 z M 22.4375,27.0625 L 23.375,28.75 L 24.25,28.25 L 23.25,31.25 L 20,30.75 L 21,30.15625 L 20.375,29.125 L 22.4375,27.0625 z M 17.5,30.5 L 18.5,33.5 L 17.4375,32.875 L 16.8125,33.96875 L 14,33.5 L 16.5,34.5 L 18.5,34.5 L 18.5,37.0625 L 15.8125,37.0625 L 14,33.5 L 15.125,31.5 L 14.25,31 L 17.5,30.5 z M 24.9375,31.5625 L 26,33.5 L 24.21875,37.0625 L 21.5,37.0625 L 21.5,38 L 19.5,35.5 L 21.5,33 L 21.5,34.5 L 23,34.5 L 24,37 L 23.5,34.5 L 22.5,32.75 L 24.9375,31.5625 z"
           style="fill:#ffffff;fill-opacity:0.25098039;fill-rule:nonzero;stroke:none;stroke-width:1;stroke-linecap:square;stroke-linejoin:miter;marker:none;marker-start:none;marker-mid:none;marker-end:none;stroke-miterlimit:4;stroke-dasharray:none;stroke-dashoffset:4;stroke-opacity:1;visibility:visible;display:inline;overflow:visible;enable-background:accumulate" />
        <path
           sodipodi:nodetypes="cccccccccccccccccccccccccccccccccccccccccc"
           style="fill:#000000;fill-opacity:0.09411765;fill-rule:nonzero;stroke:none;stroke-width:1;stroke-linecap:square;stroke-linejoin:miter;marker:none;marker-start:none;marker-mid:none;marker-end:none;stroke-miterlimit:4;stroke-dasharray:none;stroke-dashoffset:4;stroke-opacity:1;visibility:visible;display:inline;overflow:visible;enable-background:accumulate"
           d="M 21.390625,32.999997 L 19.867188,35.742185 L 23.5,37.828122 L 25,35.249997 L 28.632813,33.070309 L 28.609375,32.999997 L 21.390625,32.999997 z M 28.65625,33.093747 L 25.5625,36.187497 L 26.476562,37.757809 L 25,38.624997 L 29.875,39.374997 L 31.375,34.874997 L 30.0625,35.648435 L 28.65625,33.093747 z M 21.25,38.249997 L 16.375,38.999997 L 17.664062,39.749997 L 16,42.749997 L 20.21875,43.453122 L 21.15625,41.812497 L 22.75,42.749997 L 21.25,38.249997 z M 16,42.749997 L 18.695312,48.070309 L 22.75,48.070309 L 22.75,44.249997 L 19.75,44.249997 L 16,42.749997 z M 32.382813,39.820309 L 28.726562,41.648435 L 30.25,44.249997 L 31,47.999997 L 29.5,44.249997 L 27.25,44.249997 L 27.25,41.999997 L 24.25,45.749997 L 27.25,49.499997 L 27.25,48.070309 L 31.304688,48.070309 L 34,42.749997 L 32.382813,39.820309 z"
           id="path3825" />
      </g>
    </g>
    <path
       style="opacity:1;fill:#ffffff;fill-opacity:0.1254902;fill-rule:nonzero;stroke:none;stroke-width:1;stroke-linecap:square;stroke-linejoin:miter;marker:none;marker-start:none;marker-mid:none;marker-end:none;stroke-miterlimit:4;stroke-dasharray:none;stroke-dashoffset:4;stroke-opacity:1;visibility:visible;display:inline;overflow:visible;enable-background:accumulate"
       d="M 0,175 L 5,180 L 0,180"
       id="path3870" />
    <path
       style="opacity:1;fill:#ffffff;fill-opacity:0.1254902;fill-rule:nonzero;stroke:none;stroke-width:1;stroke-linecap:square;stroke-linejoin:miter;marker:none;marker-start:none;marker-mid:none;marker-end:none;stroke-miterlimit:4;stroke-dasharray:none;stroke-dashoffset:4;stroke-opacity:1;visibility:visible;display:inline;overflow:visible;enable-background:accumulate"
       d="M 0,155 L 55,210 L 65,210 L 0,145 L 0,155 z"
       id="path3872"
       sodipodi:nodetypes="ccccc" />
    <path
       style="opacity:1;fill:#ffffff;fill-opacity:0.1254902;fill-rule:nonzero;stroke:none;stroke-width:1;stroke-linecap:square;stroke-linejoin:miter;marker:none;marker-start:none;marker-mid:none;marker-end:none;stroke-miterlimit:4;stroke-dasharray:none;stroke-dashoffset:4;stroke-opacity:1;visibility:visible;display:inline;overflow:visible;enable-background:accumulate"
       d="M 25,200 L 35,210 L 25,210"
       id="path3874" />
  </g>
</svg>
