<?xml version="1.0" encoding="UTF-8" standalone="no"?>
<!-- Created with Inkscape (http://www.inkscape.org/) -->
<svg
   xmlns:dc="http://purl.org/dc/elements/1.1/"
   xmlns:cc="http://creativecommons.org/ns#"
   xmlns:rdf="http://www.w3.org/1999/02/22-rdf-syntax-ns#"
   xmlns:svg="http://www.w3.org/2000/svg"
   xmlns="http://www.w3.org/2000/svg"
   xmlns:xlink="http://www.w3.org/1999/xlink"
   xmlns:sodipodi="http://sodipodi.sourceforge.net/DTD/sodipodi-0.dtd"
   xmlns:inkscape="http://www.inkscape.org/namespaces/inkscape"
   width="220"
   height="40"
   id="svg3496"
   sodipodi:version="0.32"
   inkscape:version="0.46"
   version="1.0"
   sodipodi:docname="logo.svg"
   inkscape:output_extension="org.inkscape.output.svg.inkscape"
   inkscape:export-filename="/home/yh/mn/profiles/managingnews/themes/jake/images/logo.png"
   inkscape:export-xdpi="90"
   inkscape:export-ydpi="90">
  <defs
     id="defs3498">
    <linearGradient
       inkscape:collect="always"
       id="linearGradient4221">
      <stop
         style="stop-color:#ff4911;stop-opacity:1"
         offset="0"
         id="stop4223" />
      <stop
         style="stop-color:#d81800;stop-opacity:1"
         offset="1"
         id="stop4225" />
    </linearGradient>
    <linearGradient
       inkscape:collect="always"
       xlink:href="#linearGradient4221"
       id="linearGradient2724"
       gradientUnits="userSpaceOnUse"
       x1="120.68427"
       y1="79.862068"
       x2="134.23154"
       y2="114.01691" />
    <linearGradient
       inkscape:collect="always"
       id="linearGradient3948">
      <stop
         style="stop-color:#c01500;stop-opacity:1"
         offset="0"
         id="stop3950" />
      <stop
         style="stop-color:#fb4209;stop-opacity:1"
         offset="1"
         id="stop3952" />
    </linearGradient>
    <linearGradient
       inkscape:collect="always"
       xlink:href="#linearGradient3948"
       id="linearGradient2722"
       gradientUnits="userSpaceOnUse"
       gradientTransform="matrix(1.1186435,0.435259,-0.4447415,1.0947921,55.79386,331.31632)"
       x1="111.9334"
       y1="112.09895"
       x2="85.107742"
       y2="71.632874" />
    <inkscape:perspective
       sodipodi:type="inkscape:persp3d"
       inkscape:vp_x="0 : 526.18109 : 1"
       inkscape:vp_y="0 : 1000 : 0"
       inkscape:vp_z="744.09448 : 526.18109 : 1"
       inkscape:persp3d-origin="372.04724 : 350.78739 : 1"
       id="perspective3504" />
    <linearGradient
       inkscape:collect="always"
       xlink:href="#linearGradient3948"
       id="linearGradient3548"
       gradientUnits="userSpaceOnUse"
       gradientTransform="matrix(1.1186435,0.435259,-0.4447415,1.0947921,55.79386,331.31632)"
       x1="111.9334"
       y1="112.09895"
       x2="85.107742"
       y2="71.632874" />
    <linearGradient
       inkscape:collect="always"
       xlink:href="#linearGradient4221"
       id="linearGradient3550"
       gradientUnits="userSpaceOnUse"
       x1="120.68427"
       y1="79.862068"
       x2="134.23154"
       y2="114.01691" />
  </defs>
  <sodipodi:namedview
     id="base"
     pagecolor="#ffffff"
     bordercolor="#666666"
     borderopacity="1.0"
     gridtolerance="10000"
     guidetolerance="10"
     objecttolerance="10"
     inkscape:pageopacity="0.0"
     inkscape:pageshadow="2"
     inkscape:zoom="2.4414062"
     inkscape:cx="66.052747"
     inkscape:cy="17.360074"
     inkscape:document-units="px"
     inkscape:current-layer="layer1"
     showgrid="false">
    <inkscape:grid
       type="xygrid"
       id="grid3530"
       visible="true"
       enabled="true" />
  </sodipodi:namedview>
  <metadata
     id="metadata3501">
    <rdf:RDF>
      <cc:Work
         rdf:about="">
        <dc:format>image/svg+xml</dc:format>
        <dc:type
           rdf:resource="http://purl.org/dc/dcmitype/StillImage" />
      </cc:Work>
    </rdf:RDF>
  </metadata>
  <g
     inkscape:label="Layer 1"
     inkscape:groupmode="layer"
     id="layer1">
    <g
       style="display:inline"
       id="g2619"
       transform="matrix(0.4417981,0,0,0.4417981,-23.69879,-189.86025)">
      <path
         sodipodi:nodetypes="cscccssssssssssssssssscccsssscccsssssssssssssssscsc"
         id="path2567"
         d="M 95.1875,441.0625 C 77.82857,441.16229 62.97991,448.74124 57.59375,462 C 51.50018,477.00017 59.30224,494.86072 75.53125,506.90625 C 76.1008,503.36334 76.74886,499.83277 77,499.03125 C 77,499.03125 79.90624,491.96875 79.90625,491.96875 C 79.90625,491.96875 79.68564,491.10215 79.46875,489.59375 C 79.40724,489.16595 79.33501,488.73062 79.28125,488.1875 C 79.26308,488.00925 79.26651,487.78421 79.25,487.59375 C 79.21616,487.19105 79.18006,486.80045 79.15625,486.34375 C 79.12441,485.73292 79.09988,485.11182 79.09375,484.40625 C 79.09332,484.3565 79.09403,484.30021 79.09375,484.25 C 79.09003,483.58484 79.09823,482.87088 79.125,482.125 C 79.13581,481.81492 79.13919,481.4803 79.15625,481.15625 C 79.17728,480.76399 79.21909,480.3497 79.25,479.9375 C 79.27975,479.53684 79.30367,479.13843 79.34375,478.71875 C 79.41388,477.98843 79.48918,477.22348 79.59375,476.4375 C 79.69089,475.70673 79.83777,474.93543 79.96875,474.15625 C 80.10668,473.33572 80.25788,472.49849 80.4375,471.625 C 80.61629,470.7575 80.80734,469.85492 81.03125,468.9375 C 84.67158,454.02201 95.875,443.15626 95.875,443.15625 C 96.71459,442.83689 97.49074,442.50644 98.21875,442.1875 C 98.78019,441.93946 99.28046,441.71426 99.78125,441.46875 C 99.93696,441.39286 100.06884,441.3256 100.21875,441.25 C 98.51966,441.1211 96.84677,441.05296 95.1875,441.0625 z M 140.59375,458.5625 C 140.42579,458.57332 140.25569,458.58378 140.09375,458.59375 C 138.35343,458.70095 137.01144,458.7528 135.875,458.78125 C 134.72896,458.81134 133.90089,458.82667 133.1875,458.8125 C 132.29611,458.79558 131.71191,458.74873 131.21875,458.71875 C 130.77508,458.69302 130.44122,458.67924 130.09375,458.6875 C 130.09375,458.6875 133.625,466.53125 133.625,466.53125 C 133.625,466.53125 120.82137,466.58065 119.53125,469.03125 C 119.53125,469.03125 119.09443,474.05781 119.75,477.4375 C 120.42529,480.91877 123.9906,485.86375 131.6875,487.25 C 132.27768,487.3563 132.86553,487.48841 133.4375,487.625 C 133.53999,487.64946 133.64811,487.66213 133.75,487.6875 C 134.21477,487.80343 134.67309,487.92838 135.125,488.0625 C 135.32422,488.12156 135.52209,488.18764 135.71875,488.25 C 136.06565,488.36024 136.4113,488.47374 136.75,488.59375 C 137.04106,488.69669 137.34015,488.79661 137.625,488.90625 C 137.85651,488.99565 138.0852,489.09394 138.3125,489.1875 C 138.691,489.34285 139.07097,489.52148 139.4375,489.6875 C 139.56035,489.74337 139.69103,489.78677 139.8125,489.84375 C 140.26944,490.05739 140.71926,490.27197 141.15625,490.5 C 141.18883,490.51704 141.21754,490.54539 141.25,490.5625 C 142.10607,491.0128 142.91331,491.50734 143.6875,492 C 143.75835,492.04505 143.83611,492.07969 143.90625,492.125 C 148.49201,495.09083 151.55325,498.63003 152.4375,500.96875 C 152.47876,501.07787 152.54927,501.28385 152.59375,501.40625 C 152.93593,500.72813 153.24241,500.05476 153.53125,499.34375 C 158.96089,485.97794 153.36037,470.33304 140.59375,458.5625 z"
         style="fill:url(#linearGradient3548);fill-opacity:1;stroke:none;stroke-width:4;stroke-linecap:round;stroke-miterlimit:0;stroke-dasharray:none;stroke-opacity:1" />
      <path
         transform="matrix(0.9505653,0.3105248,-0.3105248,0.9505653,38.721304,353.34281)"
         d="M 147.46901,97.131836 A 43.719021,31.847673 0 1 1 60.030972,97.131836 A 43.719021,31.847673 0 1 1 147.46901,97.131836 z"
         sodipodi:ry="31.847673"
         sodipodi:rx="43.719021"
         sodipodi:cy="97.131836"
         sodipodi:cx="103.74999"
         id="path2569"
         style="fill:url(#linearGradient3550);fill-opacity:1;stroke:none;stroke-width:4;stroke-linecap:round;stroke-miterlimit:0;stroke-dasharray:none;stroke-opacity:1"
         sodipodi:type="arc" />
      <path
         sodipodi:nodetypes="csccscc"
         id="path2571"
         d="M 96.22612,440.53414 C 96.22612,440.53414 107.88209,434.19299 107.88209,434.19299 C 116.72219,428.42434 126.14969,429.91842 126.14969,429.91842 L 135.19445,436.27139 C 135.19445,436.27139 157.89809,437.76551 157.89809,437.76551 C 159.63232,446.16543 154.21357,456.01933 154.21357,456.01933 L 94.82912,451.17413"
         style="fill:#000000;fill-opacity:1;fill-rule:nonzero;stroke:none;stroke-width:6;stroke-linecap:butt;stroke-linejoin:miter;stroke-miterlimit:14.5;stroke-dasharray:none;stroke-dashoffset:0;stroke-opacity:1" />
      <path
         id="path2573"
         d="M 124.09375,431.6875 C 124.09375,431.6875 114.39546,431.52358 109.3125,435.875 C 110.67641,438.42553 112.00656,443.12807 105.84375,446.34375 C 103.54646,447.54244 100.83935,447.9068 98.03125,447.78125 C 95.94251,450.17871 88.71564,459.29199 87.28125,472.3125 C 86.1494,482.60747 89.28124,487.625 89.28125,487.625 C 89.28125,487.625 92.91065,492.94533 102,492.34375 C 108.25479,491.92977 113.77634,488.83954 116.8125,485.65625 C 119.82636,482.49634 120.40476,481.52304 120.875,480.34375 C 120.2939,479.33615 119.92436,478.33639 119.75,477.4375 C 119.09443,474.05781 119.53125,469.03125 119.53125,469.03125 C 120.82137,466.58065 133.625,466.53125 133.625,466.53125 C 133.625,466.53125 130.09375,458.6875 130.09375,458.6875 C 130.44122,458.67924 130.77508,458.69302 131.21875,458.71875 C 131.71191,458.74873 132.29611,458.79558 133.1875,458.8125 C 133.90089,458.82667 134.72896,458.81134 135.875,458.78125 C 137.01144,458.7528 138.35343,458.70095 140.09375,458.59375 C 140.25569,458.58378 140.42579,458.57332 140.59375,458.5625 C 141.06624,458.53206 141.47786,458.50629 142,458.46875 C 148.43887,458.00583 152.5,455.65625 152.5,455.65625 C 156.531,446.494 156.21875,439.4375 156.21875,439.4375 C 156.21875,439.4375 132.75,437.78125 132.75,437.78125 L 124.1875,439.59375 L 129.46875,435.8125 C 126.9813,433.8759 124.09375,431.6875 124.09375,431.6875 z M 122.78125,482.8125 C 122.36152,484.33189 121.45934,486.45474 119.65625,488.71875 C 116.2494,492.99648 111.99474,497.14423 101.84375,498.53125 C 98.47591,498.9886 95.38314,498.81054 92.625,498.28125 C 92.625,498.28125 94.13726,500.61586 100.09375,500.59375 C 105.13193,500.57504 109.625,498.71875 109.625,498.71875 C 109.625,498.71875 105.16955,503.71516 96.71875,503.21875 C 96.04812,503.50166 94.09377,504.52261 94.09375,506.96875 C 95.46065,511.77732 100.93465,512.84376 105.8125,512.84375 C 110.69036,512.84375 111.65626,505.03125 111.65625,505.03125 C 114.64492,506.53826 118.49317,507.01077 119.46875,509.9375 C 120.26829,512.33613 119.561,516.72332 117.875,520.1875 C 116.95096,520.24063 116.00331,520.27057 115.0625,520.28125 C 120.86618,520.33166 126.42041,519.54789 131.4375,518 C 131.99347,513.90751 131.95974,507.93751 136.0625,507.9375 C 137.8616,507.9375 138.99128,511.48297 140.84375,513.78125 C 145.93672,510.67415 150.01341,506.51987 152.59375,501.40625 C 152.54927,501.28385 152.47876,501.07787 152.4375,500.96875 C 151.55325,498.63003 148.49201,495.09083 143.90625,492.125 C 143.83611,492.07969 143.75835,492.04505 143.6875,492 C 142.91331,491.50734 142.10607,491.0128 141.25,490.5625 C 141.21754,490.54539 141.18883,490.51704 141.15625,490.5 C 140.71926,490.27197 140.26944,490.05739 139.8125,489.84375 C 139.69103,489.78677 139.56035,489.74337 139.4375,489.6875 C 139.07097,489.52148 138.691,489.34285 138.3125,489.1875 C 138.0852,489.09394 137.85651,488.99565 137.625,488.90625 C 137.34015,488.79661 137.04106,488.69669 136.75,488.59375 C 136.4113,488.47374 136.06565,488.36024 135.71875,488.25 C 135.52209,488.18764 135.32422,488.12156 135.125,488.0625 C 134.67309,487.92838 134.21477,487.80343 133.75,487.6875 C 133.64811,487.66213 133.53999,487.64946 133.4375,487.625 C 132.86553,487.48841 132.27768,487.3563 131.6875,487.25 C 127.62039,486.51749 124.72433,484.7913 122.78125,482.8125 z M 138.5625,515.0625 C 137.84062,515.44075 137.09881,515.81657 136.34375,516.15625 C 137.10408,515.81853 137.83603,515.43991 138.5625,515.0625 z M 136.34375,516.15625 C 135.68986,516.45041 135.02149,516.73623 134.34375,517 C 135.02412,516.73834 135.68707,516.44793 136.34375,516.15625 z"
         style="fill:#ffffff;fill-opacity:1;fill-rule:nonzero;stroke:none;stroke-width:2;stroke-linecap:butt;stroke-linejoin:miter;stroke-miterlimit:14.5;stroke-dasharray:none;stroke-dashoffset:0;stroke-opacity:1" />
      <path
         sodipodi:nodetypes="cccsscssscsccccccccc"
         id="path2575"
         d="M 169.36106,452.75579 C 169.36106,452.75579 154.39352,454.27082 154.39352,454.27082 L 152.5,455.65625 C 152.19995,455.82125 148.15998,458.02362 141.96875,458.46875 C 132.87494,459.12257 130.3808,457.80872 128.90625,457.84375 C 126.5604,457.89944 123.98974,462.85675 127.5625,465.25 C 124.80231,465.60397 122.43518,465.97678 121.0625,465.875 C 117.65517,465.62226 118.91418,463.43239 114.40625,464.78125 C 114.40625,464.78125 117.34641,465.41579 117.25,472.71875 C 117.19623,476.79108 120.34375,479.3125 120.34375,479.3125 C 120.34375,479.3125 119.73806,477.51538 119.71875,475.03125 C 119.69945,472.54741 120.875,470.40625 120.875,470.40625 C 121.52004,469.18095 124.85022,468.50277 128.0625,468.1875 L 141.71875,467.21875 C 153.10298,469.39382 159.90625,475.46875 159.90625,475.46875 C 159.90626,475.46875 161.1875,469.875 161.1875,469.875 L 167.78125,462.875 L 169.03125,459.65625 L 163.9375,458.625 L 169.36106,452.75579 z"
         style="fill:#000000;fill-opacity:1;fill-rule:nonzero;stroke:none;stroke-width:8;stroke-linecap:butt;stroke-linejoin:miter;stroke-miterlimit:14.5;stroke-dasharray:none;stroke-dashoffset:0;stroke-opacity:1" />
      <path
         style="fill:#ffffff;fill-opacity:1;fill-rule:nonzero;stroke:none;stroke-width:2;stroke-linecap:butt;stroke-linejoin:miter;stroke-miterlimit:14.5;stroke-dasharray:none;stroke-dashoffset:0;stroke-opacity:1"
         d="M 149.61545,442.20421 C 149.61545,442.20421 150.21923,447.28106 153.11405,447.56052 C 153.11405,447.56052 154.83157,447.79525 154.83157,447.79525 L 154.62481,448.99792 C 154.62481,448.99792 152.86358,448.72394 152.86358,448.72394 C 149.33137,448.46142 149.65918,442.24348 149.61545,442.20421 z"
         id="path2577"
         sodipodi:nodetypes="csccsc" />
      <path
         id="path2579"
         d="M 108.125,434.0625 C 99.94916,439.61943 87.2359,443.27786 81.90625,445.875 C 76.57659,448.47214 71.36223,453.06075 74.59375,456.28125 C 76.20741,457.88939 78.81062,457.58881 82.84375,455.8125 C 84.6399,455.02142 86.0743,454.01305 87.15625,453.0625 C 84.53959,457.36713 81.94766,462.81283 80.125,468.8125 C 76.93382,479.31696 79.03125,491.84375 79.03125,491.84375 C 78.09957,494.15549 77.46757,496.65092 76.5,498.96875 C 76.50002,498.96875 75.89309,502.98979 75.34375,506.8125 C 80.01739,510.30427 85.42293,513.30907 91.375,515.625 C 98.82312,518.52303 106.34233,520.01077 113.53125,520.25 C 114.00046,520.26561 114.47156,520.2764 114.9375,520.28125 C 115.91941,520.27174 116.90994,520.24299 117.875,520.1875 C 119.561,516.72332 120.26829,512.33613 119.46875,509.9375 C 118.49317,507.01077 114.64492,506.53826 111.65625,505.03125 C 111.65626,505.03125 110.69036,512.84375 105.8125,512.84375 C 100.93465,512.84376 95.46065,511.77732 94.09375,506.96875 C 94.09377,504.52261 96.04812,503.50166 96.71875,503.21875 C 105.16955,503.71516 109.625,498.71875 109.625,498.71875 C 109.625,498.71875 105.13193,500.57504 100.09375,500.59375 C 94.13726,500.61586 92.625,498.28125 92.625,498.28125 C 95.38314,498.81054 98.47591,498.9886 101.84375,498.53125 C 111.99474,497.14423 116.2494,492.99648 119.65625,488.71875 C 121.45934,486.45474 122.36152,484.33189 122.78125,482.8125 C 121.99347,482.00948 121.35738,481.14832 120.875,480.3125 C 120.40261,481.50364 119.84866,482.47296 116.8125,485.65625 C 113.77634,488.83954 108.25479,491.92977 102,492.34375 C 92.91065,492.94533 89.28125,487.625 89.28125,487.625 C 89.28124,487.625 86.1494,482.60747 87.28125,472.3125 C 88.71564,459.29199 95.94251,450.17871 98.03125,447.78125 C 100.83935,447.9068 103.54646,447.54244 105.84375,446.34375 C 114.65988,441.74361 108.125,434.0625 108.125,434.0625 z M 136.0625,507.9375 C 131.95974,507.93751 131.99347,513.90751 131.4375,518 C 134.84451,516.94886 137.99772,515.51755 140.84375,513.78125 C 138.99128,511.48297 137.8616,507.9375 136.0625,507.9375 z"
         style="fill:#000000;fill-opacity:1;fill-rule:nonzero;stroke:none;stroke-width:8;stroke-linecap:butt;stroke-linejoin:miter;stroke-miterlimit:14.5;stroke-dasharray:none;stroke-dashoffset:0;stroke-opacity:1" />
      <path
         style="fill:#000000;fill-opacity:1;fill-rule:nonzero;stroke:none;stroke-width:2;stroke-linecap:butt;stroke-linejoin:miter;stroke-miterlimit:14.5;stroke-dasharray:none;stroke-dashoffset:0;stroke-opacity:1"
         d="M 150.78462,442.3089 C 150.78462,442.3089 150.11193,447.43227 152.93862,447.80343 C 155.29153,448.11234 155.75325,447.77289 155.75325,447.77289 L 156.27352,445.41366 C 156.27352,445.41366 155.62316,445.68112 153.50314,445.40275 C 151.38312,445.12439 150.84352,442.38929 150.78462,442.3089 z"
         id="path2581"
         sodipodi:nodetypes="cscczc" />
      <path
         sodipodi:nodetypes="cccsc"
         id="path2583"
         d="M 84.95674,447.11772 C 84.95674,447.11772 89.69646,443.7684 97.41994,443.93747 C 101.74934,444.13737 107.02541,443.63976 109.08321,439.75647 C 109.08321,439.75647 109.66492,446.11649 99.77315,446.11649 C 93.47346,446.11649 91.20823,445.95301 84.95674,447.11772 z"
         style="fill:#ffffff;fill-opacity:1;fill-rule:nonzero;stroke:none;stroke-width:6;stroke-linecap:butt;stroke-linejoin:miter;stroke-miterlimit:14.5;stroke-dasharray:none;stroke-dashoffset:0;stroke-opacity:1" />
      <path
         sodipodi:nodetypes="csccccc"
         id="path2585"
         d="M 134.97222,460.519 C 134.97222,460.519 140.30141,461.97585 147.42418,460.33346 C 152.98964,459.05015 156.52264,455.88387 156.52264,455.88387 L 166.17842,454.29164 L 154.62255,464.84489 C 154.62255,464.84489 149.10173,464.84792 143.52092,463.99964 C 136.64983,462.9919 134.97222,460.519 134.97222,460.519 z"
         style="fill:#ffffff;fill-opacity:1;stroke:none;stroke-width:4;stroke-linecap:round;stroke-miterlimit:0;stroke-dasharray:none;stroke-opacity:1" />
      <path
         sodipodi:nodetypes="czzczc"
         id="path2587"
         d="M 132.23032,460.34376 C 132.23032,460.34376 129.36422,460.71574 129.42655,462.74895 C 129.48885,464.7812 131.11018,465.22285 133.20612,465.22285 C 135.30207,465.22285 140.22926,464.83802 140.22926,464.83802 C 140.22926,464.83802 131.90348,464.65689 131.48813,462.61151 C 131.07528,460.57845 132.23032,460.34376 132.23032,460.34376 z"
         style="fill:#ffffff;fill-opacity:1;stroke:none;stroke-width:4;stroke-linecap:round;stroke-miterlimit:0;stroke-dasharray:none;stroke-opacity:1" />
      <path
         sodipodi:nodetypes="cccccc"
         id="path2589"
         d="M 144.81972,465.56644 C 144.81972,465.56644 154.72735,468.4768 158.22001,471.88864 C 158.22001,471.88864 158.4949,468.86498 158.4949,468.86498 L 167.3762,460.81655 L 155.12764,467.07827 L 144.81972,465.56644 z"
         style="fill:#ffffff;fill-opacity:1;stroke:none;stroke-width:4;stroke-linecap:round;stroke-miterlimit:0;stroke-dasharray:none;stroke-opacity:1" />
      <path
         sodipodi:nodetypes="ccc"
         id="path2591"
         d="M 155.12764,467.07827 L 162.68678,460.20633 L 158.04959,467.72699"
         style="fill:#ffffff;fill-opacity:1;stroke:none;stroke-width:4;stroke-linecap:round;stroke-miterlimit:0;stroke-dasharray:none;stroke-opacity:1" />
    </g>
    <path
       style="font-size:47.8766861px;font-style:normal;font-variant:normal;font-weight:bold;font-stretch:normal;text-align:start;line-height:100%;writing-mode:lr-tb;text-anchor:start;fill:#ffffff;fill-opacity:1;stroke:none;stroke-width:4;stroke-linecap:round;stroke-miterlimit:0;stroke-opacity:1;display:inline;font-family:Miso;-inkscape-font-specification:Miso Bold"
       d="M 62.401148,28.564477 C 62.152888,28.564477 61.948978,28.484687 61.789388,28.325097 C 61.629798,28.165507 61.549998,27.961587 61.549998,27.713337 L 61.549998,12.286407 C 61.549998,12.091367 61.612058,11.914047 61.736188,11.754437 C 61.860308,11.594867 62.019898,11.497347 62.214958,11.461857 C 62.410008,11.426417 62.596198,11.453007 62.773518,11.541657 C 62.950838,11.612597 63.083828,11.736727 63.172488,11.914027 C 63.633528,12.907047 64.085688,13.864577 64.528998,14.786637 C 64.901368,15.584587 65.282608,16.409137 65.672718,17.260267 C 66.062818,18.093677 66.390868,18.785237 66.656848,19.334917 C 66.780968,19.068947 66.922828,18.758637 67.082418,18.403987 C 67.259738,18.031617 67.437058,17.650377 67.614388,17.260267 C 67.809428,16.852437 68.004488,16.435727 68.199548,16.010147 C 68.394588,15.584587 68.589638,15.176747 68.784698,14.786637 C 69.227998,13.864577 69.680168,12.907047 70.141208,11.914027 C 70.229858,11.736727 70.362848,11.612597 70.540178,11.541657 C 70.717488,11.453007 70.903678,11.426417 71.098738,11.461857 C 71.293788,11.497347 71.453378,11.594867 71.577508,11.754437 C 71.701628,11.914047 71.763688,12.091367 71.763698,12.286407 L 71.763698,27.713337 C 71.763688,27.961587 71.675028,28.165507 71.497718,28.325097 C 71.338118,28.484687 71.143068,28.564477 70.912558,28.564477 C 70.664298,28.564477 70.460378,28.484687 70.300798,28.325097 C 70.141198,28.165507 70.061408,27.961587 70.061418,27.713337 L 70.061418,16.089937 C 69.742228,16.763777 69.423048,17.437597 69.103878,18.111397 C 68.802428,18.767497 68.527578,19.361527 68.279338,19.893477 C 67.977888,20.514117 67.694168,21.116997 67.428198,21.702147 C 67.250868,22.021337 66.993748,22.180927 66.656848,22.180927 C 66.284468,22.180927 66.027348,22.021337 65.885498,21.702147 C 65.619518,21.116997 65.335798,20.514117 65.034368,19.893477 C 64.786108,19.361527 64.502398,18.767497 64.183228,18.111397 C 63.864038,17.437597 63.553728,16.763777 63.252288,16.089937 L 63.252288,27.713337 C 63.252288,27.961587 63.163628,28.165507 62.986308,28.325097 C 62.826718,28.484687 62.631658,28.564477 62.401148,28.564477 M 84.385358,27.500557 C 84.456278,27.731067 84.429678,27.943857 84.305558,28.138907 C 84.199158,28.333967 84.021838,28.466957 83.773598,28.537877 C 83.543068,28.608807 83.330288,28.582217 83.135238,28.458087 C 82.940178,28.351697 82.807188,28.183237 82.736268,27.952727 C 82.665328,27.686737 82.585538,27.394167 82.496888,27.074987 C 82.408218,26.791267 82.310688,26.463227 82.204308,26.090847 C 82.115638,25.718477 82.009248,25.301777 81.885128,24.840737 L 76.725088,24.840737 C 76.583228,25.301777 76.467968,25.718477 76.379308,26.090847 C 76.290648,26.463227 76.201988,26.791267 76.113328,27.074987 C 76.024668,27.394167 75.944868,27.686737 75.873948,27.952727 C 75.803018,28.183237 75.670028,28.351697 75.474968,28.458087 C 75.279918,28.582217 75.058268,28.608807 74.810018,28.537877 C 74.579498,28.466957 74.402178,28.333967 74.278048,28.138907 C 74.171668,27.943857 74.153928,27.731067 74.224858,27.500557 L 78.480568,12.073617 C 78.533758,11.878587 78.631278,11.727857 78.773138,11.621447 C 78.932728,11.497347 79.110048,11.435277 79.305108,11.435257 C 79.500158,11.435277 79.668608,11.497347 79.810468,11.621447 C 79.970058,11.727857 80.076448,11.878587 80.129648,12.073617 L 84.385358,27.500557 M 81.406368,23.138457 C 81.229028,22.482377 81.042848,21.808547 80.847808,21.116997 C 80.652738,20.407717 80.457688,19.716167 80.262638,19.042337 C 80.085318,18.368527 79.907988,17.730177 79.730678,17.127277 C 79.571078,16.506657 79.429228,15.956967 79.305108,15.478187 C 79.163248,15.956967 79.012518,16.506657 78.852938,17.127277 C 78.693338,17.730177 78.516028,18.368527 78.320978,19.042337 C 78.143648,19.716167 77.957468,20.407717 77.762418,21.116997 C 77.567358,21.808547 77.381168,22.482377 77.203858,23.138457 L 81.406368,23.138457 M 95.33424,28.537877 C 95.13918,28.591077 94.95299,28.573347 94.77568,28.484687 C 94.59835,28.396027 94.46536,28.263037 94.37671,28.085717 C 93.63195,26.560747 92.90493,25.062387 92.19566,23.590627 C 91.89421,22.970007 91.57503,22.322787 91.23812,21.648957 C 90.91894,20.975147 90.59976,20.310187 90.28059,19.654097 C 89.96141,18.980287 89.65109,18.333067 89.34966,17.712427 C 89.06594,17.091817 88.79996,16.524387 88.55171,16.010147 L 88.55171,27.713337 C 88.55171,27.961587 88.47191,28.165507 88.31233,28.325097 C 88.15273,28.484687 87.948818,28.564477 87.700568,28.564477 C 87.452318,28.564477 87.248398,28.484687 87.088808,28.325097 C 86.929218,28.165507 86.849428,27.961587 86.849428,27.713337 L 86.849428,12.286407 C 86.849428,12.091367 86.911488,11.914047 87.035618,11.754437 C 87.159738,11.594867 87.319328,11.497347 87.514378,11.461857 C 87.709428,11.426417 87.895618,11.453007 88.07294,11.541657 C 88.25026,11.612597 88.38325,11.736727 88.47192,11.914027 C 89.19893,13.439007 89.91708,14.937367 90.62637,16.409117 C 90.92781,17.029757 91.23812,17.676977 91.5573,18.350787 C 91.89421,19.024617 92.22225,19.698437 92.54143,20.372247 C 92.86061,21.028337 93.17092,21.666697 93.47237,22.287317 C 93.77381,22.907937 94.04866,23.475367 94.29691,23.989597 L 94.29691,12.286407 C 94.29691,12.038177 94.3767,11.834247 94.5363,11.674647 C 94.69587,11.515077 94.8998,11.435277 95.14806,11.435257 C 95.3963,11.435277 95.60021,11.515077 95.75981,11.674647 C 95.91939,11.834247 95.99918,12.038177 95.9992,12.286407 L 95.9992,27.713337 C 95.99918,27.908387 95.93712,28.085717 95.81301,28.245307 C 95.68887,28.404887 95.52928,28.502417 95.33424,28.537877 M 108.64579,27.500557 C 108.71671,27.731067 108.69011,27.943857 108.566,28.138907 C 108.45959,28.333967 108.28227,28.466957 108.03403,28.537877 C 107.8035,28.608807 107.59072,28.582217 107.39567,28.458087 C 107.20061,28.351697 107.06762,28.183237 106.9967,27.952727 C 106.92576,27.686737 106.84597,27.394167 106.75732,27.074987 C 106.66865,26.791267 106.57112,26.463227 106.46474,26.090847 C 106.37607,25.718477 106.26968,25.301777 106.14556,24.840737 L 100.98552,24.840737 C 100.84366,25.301777 100.7284,25.718477 100.63974,26.090847 C 100.55108,26.463227 100.46242,26.791267 100.37376,27.074987 C 100.2851,27.394167 100.2053,27.686737 100.13438,27.952727 C 100.06345,28.183237 99.93046,28.351697 99.73541,28.458087 C 99.54035,28.582217 99.3187,28.608807 99.07045,28.537877 C 98.83993,28.466957 98.66261,28.333967 98.53849,28.138907 C 98.4321,27.943857 98.41436,27.731067 98.48529,27.500557 L 102.741,12.073617 C 102.79419,11.878587 102.89171,11.727857 103.03358,11.621447 C 103.19316,11.497347 103.37048,11.435277 103.56554,11.435257 C 103.76058,11.435277 103.92904,11.497347 104.07091,11.621447 C 104.23049,11.727857 104.33688,11.878587 104.39009,12.073617 L 108.64579,27.500557 M 105.6668,23.138457 C 105.48947,22.482377 105.30328,21.808547 105.10824,21.116997 C 104.91317,20.407717 104.71812,19.716167 104.52307,19.042337 C 104.34575,18.368527 104.16842,17.730177 103.99111,17.127277 C 103.83152,16.506657 103.68966,15.956967 103.56554,15.478187 C 103.42368,15.956967 103.27296,16.506657 103.11337,17.127277 C 102.95378,17.730177 102.77646,18.368527 102.58141,19.042337 C 102.40408,19.716167 102.2179,20.407717 102.02285,21.116997 C 101.82779,21.808547 101.6416,22.482377 101.46428,23.138457 L 105.6668,23.138457 M 110.79069,15.478187 C 110.79068,14.556127 111.06553,13.740447 111.61522,13.031157 C 112.18265,12.304147 112.90967,11.816527 113.79627,11.568257 C 114.23957,11.444147 114.68287,11.399817 115.12619,11.435257 C 115.56948,11.470747 115.98619,11.577137 116.3763,11.754437 C 116.78413,11.914047 117.1565,12.144557 117.49342,12.445997 C 117.83032,12.729727 118.11404,13.066637 118.34456,13.456727 C 118.46868,13.651787 118.49528,13.864577 118.42436,14.095077 C 118.37115,14.325617 118.23816,14.502937 118.02539,14.627047 C 117.83032,14.751187 117.61754,14.777777 117.38703,14.706837 C 117.1565,14.635927 116.97918,14.502937 116.85506,14.307867 C 116.60681,13.846847 116.23444,13.518797 115.73794,13.323737 C 115.25917,13.110967 114.76267,13.075497 114.24845,13.217337 C 113.73421,13.359217 113.30864,13.642927 112.97174,14.068487 C 112.65255,14.476337 112.49296,14.946237 112.49296,15.478187 L 112.49296,24.521557 C 112.49296,25.177647 112.72348,25.736217 113.18452,26.197237 C 113.64555,26.640547 114.19524,26.862197 114.8336,26.862197 C 115.48969,26.862197 116.03938,26.640547 116.48269,26.197237 C 116.94372,25.736217 117.17424,25.177647 117.17424,24.521557 L 117.17424,21.116997 L 115.36557,21.116997 C 115.13505,21.116997 114.93112,21.037207 114.75381,20.877617 C 114.59421,20.718027 114.51442,20.514117 114.51442,20.265847 C 114.51442,20.017617 114.59421,19.813697 114.75381,19.654097 C 114.93112,19.494517 115.13505,19.414727 115.36557,19.414717 L 118.02539,19.414717 C 118.27363,19.414727 118.47754,19.494517 118.63714,19.654097 C 118.79672,19.813697 118.87651,20.017617 118.87653,20.265847 L 118.87653,24.521557 C 118.87651,25.088987 118.77013,25.620947 118.55735,26.117447 C 118.34455,26.596217 118.05198,27.021787 117.67961,27.394167 C 117.32496,27.748807 116.89939,28.032517 116.4029,28.245307 C 115.90639,28.458087 115.38329,28.564477 114.8336,28.564477 C 114.26617,28.564477 113.73421,28.458087 113.23771,28.245307 C 112.75895,28.032517 112.33337,27.748807 111.961,27.394167 C 111.60636,27.021787 111.32265,26.596217 111.10986,26.117447 C 110.89707,25.620947 110.79068,25.088987 110.79069,24.521557 L 110.79069,15.478187 L 110.79069,15.478187 M 122.92235,28.564477 C 122.69184,28.564477 122.48791,28.484687 122.3106,28.325097 C 122.151,28.165507 122.07121,27.961587 122.07121,27.713337 L 122.07121,12.286407 C 122.07121,12.038177 122.151,11.834247 122.3106,11.674647 C 122.48791,11.515077 122.69184,11.435277 122.92235,11.435257 C 123.1706,11.435277 123.37452,11.515077 123.53411,11.674647 C 123.6937,11.834247 123.77349,12.038177 123.7735,12.286407 L 123.7735,27.713337 C 123.77349,27.961587 123.6937,28.165507 123.53411,28.325097 C 123.37452,28.484687 123.1706,28.564477 122.92235,28.564477 M 135.85488,28.537877 C 135.65982,28.591077 135.47363,28.573347 135.29632,28.484687 C 135.11899,28.396027 134.986,28.263037 134.89734,28.085717 C 134.15259,26.560747 133.42557,25.062387 132.7163,23.590627 C 132.41484,22.970007 132.09567,22.322787 131.75876,21.648957 C 131.43958,20.975147 131.1204,20.310187 130.80123,19.654097 C 130.48204,18.980287 130.17173,18.333067 129.87029,17.712427 C 129.58658,17.091817 129.32059,16.524387 129.07235,16.010147 L 129.07235,27.713337 C 129.07234,27.961587 128.99255,28.165507 128.83296,28.325097 C 128.67337,28.484687 128.46945,28.564477 128.22121,28.564477 C 127.97295,28.564477 127.76904,28.484687 127.60945,28.325097 C 127.44986,28.165507 127.37006,27.961587 127.37006,27.713337 L 127.37006,12.286407 C 127.37006,12.091367 127.43213,11.914047 127.55625,11.754437 C 127.68038,11.594867 127.83996,11.497347 128.03502,11.461857 C 128.23007,11.426417 128.41626,11.453007 128.59358,11.541657 C 128.7709,11.612597 128.90389,11.736727 128.99255,11.914027 C 129.71956,13.439007 130.43771,14.937367 131.147,16.409117 C 131.44844,17.029757 131.75875,17.676977 132.07794,18.350787 C 132.41484,19.024617 132.74289,19.698437 133.06207,20.372247 C 133.38124,21.028337 133.69155,21.666697 133.99301,22.287317 C 134.29444,22.907937 134.56929,23.475367 134.81755,23.989597 L 134.81755,12.286407 C 134.81754,12.038177 134.89734,11.834247 135.05693,11.674647 C 135.21652,11.515077 135.42043,11.435277 135.66869,11.435257 C 135.91693,11.435277 136.12085,11.515077 136.28045,11.674647 C 136.44003,11.834247 136.51982,12.038177 136.51983,12.286407 L 136.51983,27.713337 C 136.51982,27.908387 136.45776,28.085717 136.33364,28.245307 C 136.20951,28.404887 136.04992,28.502417 135.85488,28.537877 M 139.83048,15.478187 C 139.83048,14.556127 140.10532,13.740447 140.65502,13.031157 C 141.22244,12.304147 141.94946,11.816527 142.83607,11.568257 C 143.27937,11.444147 143.72267,11.399817 144.16598,11.435257 C 144.60927,11.470747 145.02598,11.577137 145.41609,11.754437 C 145.82392,11.914047 146.19629,12.144557 146.53321,12.445997 C 146.87012,12.729727 147.15383,13.066637 147.38436,13.456727 C 147.50847,13.651787 147.53507,13.864577 147.46415,14.095077 C 147.41094,14.325617 147.27795,14.502937 147.06518,14.627047 C 146.87012,14.751187 146.65733,14.777777 146.42682,14.706837 C 146.19629,14.635927 146.01897,14.502937 145.89486,14.307867 C 145.6466,13.846847 145.27423,13.518797 144.77773,13.323737 C 144.29896,13.110967 143.80246,13.075497 143.28824,13.217337 C 142.774,13.359217 142.34843,13.642927 142.01153,14.068487 C 141.69234,14.476337 141.53275,14.946237 141.53276,15.478187 L 141.53276,24.521557 C 141.53275,25.177647 141.76327,25.736217 142.22431,26.197237 C 142.68534,26.640547 143.23504,26.862197 143.87339,26.862197 C 144.52948,26.862197 145.07917,26.640547 145.52248,26.197237 C 145.98351,25.736217 146.21403,25.177647 146.21403,24.521557 L 146.21403,21.116997 L 144.40536,21.116997 C 144.17484,21.116997 143.97092,21.037207 143.7936,20.877617 C 143.63401,20.718027 143.55422,20.514117 143.55422,20.265847 C 143.55422,20.017617 143.63401,19.813697 143.7936,19.654097 C 143.97092,19.494517 144.17484,19.414727 144.40536,19.414717 L 147.06518,19.414717 C 147.31342,19.414727 147.51733,19.494517 147.67693,19.654097 C 147.83651,19.813697 147.91631,20.017617 147.91632,20.265847 L 147.91632,24.521557 C 147.91631,25.088987 147.80992,25.620947 147.59714,26.117447 C 147.38434,26.596217 147.09177,27.021787 146.7194,27.394167 C 146.36475,27.748807 145.93918,28.032517 145.44269,28.245307 C 144.94618,28.458087 144.42309,28.564477 143.87339,28.564477 C 143.30597,28.564477 142.774,28.458087 142.2775,28.245307 C 141.79874,28.032517 141.37317,27.748807 141.00079,27.394167 C 140.64615,27.021787 140.36244,26.596217 140.14965,26.117447 C 139.93687,25.620947 139.83048,25.088987 139.83048,24.521557 L 139.83048,15.478187 L 139.83048,15.478187 M 164.68687,28.537877 C 164.49181,28.591077 164.30562,28.573347 164.12831,28.484687 C 163.95097,28.396027 163.81798,28.263037 163.72933,28.085717 C 162.98458,26.560747 162.25756,25.062387 161.54828,23.590627 C 161.24683,22.970007 160.92766,22.322787 160.59075,21.648957 C 160.27157,20.975147 159.95239,20.310187 159.63322,19.654097 C 159.31403,18.980287 159.00372,18.333067 158.70228,17.712427 C 158.41856,17.091817 158.15258,16.524387 157.90433,16.010147 L 157.90433,27.713337 C 157.90433,27.961587 157.82454,28.165507 157.66495,28.325097 C 157.50536,28.484687 157.30144,28.564477 157.05319,28.564477 C 156.80494,28.564477 156.60102,28.484687 156.44144,28.325097 C 156.28184,28.165507 156.20205,27.961587 156.20206,27.713337 L 156.20206,12.286407 C 156.20205,12.091367 156.26412,11.914047 156.38824,11.754437 C 156.51236,11.594867 156.67195,11.497347 156.86701,11.461857 C 157.06206,11.426417 157.24824,11.453007 157.42557,11.541657 C 157.60289,11.612597 157.73588,11.736727 157.82454,11.914027 C 158.55156,13.439007 159.26971,14.937367 159.979,16.409117 C 160.28043,17.029757 160.59075,17.676977 160.90993,18.350787 C 161.24683,19.024617 161.57487,19.698437 161.89406,20.372247 C 162.21323,21.028337 162.52354,21.666697 162.825,22.287317 C 163.12643,22.907937 163.40128,23.475367 163.64954,23.989597 L 163.64954,12.286407 C 163.64953,12.038177 163.72932,11.834247 163.88892,11.674647 C 164.0485,11.515077 164.25242,11.435277 164.50068,11.435257 C 164.74892,11.435277 164.95284,11.515077 165.11244,11.674647 C 165.27202,11.834247 165.35181,12.038177 165.35182,12.286407 L 165.35182,27.713337 C 165.35181,27.908387 165.28975,28.085717 165.16563,28.245307 C 165.0415,28.404887 164.88191,28.502417 164.68687,28.537877 M 168.98164,12.392797 C 168.98163,12.144557 169.06143,11.940647 169.22102,11.781037 C 169.38061,11.621467 169.58453,11.541677 169.83278,11.541657 L 175.15241,11.541657 C 175.40065,11.541677 175.60457,11.621467 175.76417,11.781037 C 175.92375,11.940647 176.00355,12.144557 176.00355,12.392797 C 176.00355,12.641057 175.92375,12.844987 175.76417,13.004557 C 175.60457,13.164167 175.40065,13.243957 175.15241,13.243937 L 170.68392,13.243937 L 170.68392,18.882747 L 174.62045,18.882747 C 174.86869,18.882757 175.07261,18.962547 175.23221,19.122137 C 175.39179,19.281727 175.47158,19.485647 175.47159,19.733887 C 175.47158,19.982147 175.39179,20.186067 175.23221,20.345647 C 175.07261,20.505247 174.86869,20.585037 174.62045,20.585027 L 170.68392,20.585027 L 170.68392,26.755807 L 175.15241,26.755807 C 175.40065,26.755807 175.60457,26.835597 175.76417,26.995187 C 175.92375,27.154777 176.00355,27.358697 176.00355,27.606947 C 176.00355,27.855197 175.92375,28.059117 175.76417,28.218707 C 175.60457,28.378287 175.40065,28.458087 175.15241,28.458087 L 169.83278,28.458087 C 169.58453,28.458087 169.38061,28.378287 169.22102,28.218707 C 169.06143,28.059117 168.98163,27.855197 168.98164,27.606947 L 168.98164,12.392797 M 177.95021,12.499187 C 177.89701,12.250957 177.92361,12.029307 178.03,11.834237 C 178.15413,11.639197 178.33145,11.515077 178.56197,11.461857 C 178.79248,11.408687 179.00527,11.444147 179.20032,11.568257 C 179.41311,11.674657 179.5461,11.851987 179.5993,12.100217 C 179.95394,13.607467 180.30857,15.088087 180.66322,16.542117 C 180.80507,17.162747 180.9558,17.809967 181.11539,18.483777 C 181.29271,19.139877 181.46116,19.804827 181.62076,20.478637 C 181.78034,21.134737 181.93106,21.773087 182.07292,22.393707 C 182.23251,23.014337 182.37436,23.581767 182.4985,24.095987 C 182.62261,23.581767 182.7556,23.014337 182.89747,22.393707 C 183.03932,21.773087 183.19004,21.134737 183.34964,20.478637 C 183.50922,19.804827 183.66881,19.139877 183.8284,18.483777 C 183.98799,17.809967 184.14757,17.162747 184.30717,16.542117 C 184.6618,15.088087 185.02531,13.607467 185.3977,12.100217 C 185.43315,11.905187 185.53067,11.745597 185.69027,11.621447 C 185.84985,11.497347 186.02717,11.435277 186.22224,11.435257 C 186.6478,11.435277 186.92265,11.656937 187.04678,12.100217 C 187.40141,13.607467 187.75605,15.088087 188.11071,16.542117 C 188.25255,17.162747 188.40328,17.809967 188.56288,18.483777 C 188.74019,19.139877 188.90864,19.804827 189.06824,20.478637 C 189.22782,21.134737 189.37854,21.773087 189.52041,22.393707 C 189.67999,23.014337 189.82184,23.581767 189.94598,24.095987 C 190.07009,23.581767 190.20308,23.014337 190.34495,22.393707 C 190.4868,21.773087 190.63752,21.134737 190.79712,20.478637 C 190.9567,19.804827 191.11629,19.139877 191.27589,18.483777 C 191.43546,17.809967 191.59505,17.162747 191.75465,16.542117 C 192.10928,15.088087 192.47279,13.607467 192.84518,12.100217 C 192.89836,11.851987 193.02249,11.674657 193.21755,11.568257 C 193.41259,11.444147 193.62538,11.408687 193.85591,11.461857 C 194.08641,11.515077 194.26373,11.639197 194.38788,11.834237 C 194.51198,12.029307 194.54744,12.250957 194.49426,12.499187 L 190.77053,27.926127 C 190.71731,28.121177 190.61092,28.280767 190.45135,28.404887 C 190.30948,28.511287 190.14102,28.564477 189.94598,28.564477 C 189.75091,28.564477 189.57359,28.511287 189.41401,28.404887 C 189.25441,28.280767 189.15689,28.121177 189.12144,27.926127 C 188.74905,26.436627 188.38554,24.955997 188.03091,23.484227 C 187.87131,22.863617 187.71173,22.216387 187.55215,21.542567 C 187.39255,20.868747 187.23296,20.203797 187.07338,19.547697 C 186.91378,18.873887 186.76306,18.226677 186.62121,17.606037 C 186.47934,16.985427 186.34635,16.417997 186.22224,15.903757 C 186.0981,16.417997 185.95625,16.985427 185.79667,17.606037 C 185.6548,18.226677 185.50408,18.873887 185.3445,19.547697 C 185.1849,20.203797 185.01645,20.868747 184.83913,21.542567 C 184.67954,22.216387 184.52881,22.863617 184.38696,23.484227 C 184.03231,24.955997 183.67767,26.436627 183.32304,27.926127 C 183.26984,28.121177 183.16344,28.280767 183.00386,28.404887 C 182.862,28.511287 182.69354,28.564477 182.4985,28.564477 C 182.30344,28.564477 182.12611,28.511287 181.96653,28.404887 C 181.80694,28.280767 181.70941,28.121177 181.67395,27.926127 L 177.95021,12.499187 L 177.95021,12.499187 M 201.86902,26.356827 C 202.4719,25.913527 202.79995,25.319507 202.85315,24.574757 C 202.88861,24.220117 202.84428,23.874337 202.72016,23.537427 C 202.59603,23.200527 202.40984,22.907937 202.1616,22.659687 L 197.90589,18.297587 C 197.49805,17.889767 197.19661,17.410997 197.00156,16.861287 C 196.8065,16.311607 196.73558,15.753047 196.78877,15.185607 C 196.82424,14.600457 196.98383,14.059627 197.26754,13.563117 C 197.55125,13.048897 197.92363,12.614457 198.38466,12.259807 C 198.84569,11.905187 199.35993,11.665797 199.92735,11.541657 C 200.49478,11.399817 201.0622,11.390947 201.62964,11.515057 C 202.19706,11.639197 202.71129,11.869717 203.17233,12.206607 C 203.63336,12.525807 204.0146,12.942507 204.31605,13.456727 C 204.44017,13.651787 204.46677,13.864577 204.39585,14.095077 C 204.34264,14.325617 204.20965,14.502937 203.99688,14.627047 C 203.80181,14.751187 203.58903,14.777777 203.35852,14.706837 C 203.12799,14.635927 202.95954,14.502937 202.85315,14.307867 C 202.4985,13.704987 201.97541,13.332617 201.28386,13.190747 C 200.5923,13.048897 199.96281,13.190757 199.39539,13.616317 C 198.84569,14.024167 198.54425,14.582727 198.49105,15.291997 C 198.43785,15.983567 198.65064,16.586447 199.12941,17.100677 L 203.38512,21.489367 C 203.79295,21.914947 204.09439,22.411447 204.28945,22.978867 C 204.50223,23.528567 204.59089,24.104857 204.55544,24.707747 C 204.50223,25.310637 204.33378,25.878067 204.05007,26.410027 C 203.76635,26.924267 203.38511,27.358697 202.90635,27.713337 C 202.42758,28.067977 201.89562,28.316227 201.31046,28.458087 C 200.72529,28.599947 200.14014,28.608807 199.55498,28.484687 C 198.96982,28.360567 198.42899,28.130037 197.93249,27.793137 C 197.45373,27.438487 197.06362,27.004057 196.76218,26.489827 C 196.65578,26.277037 196.62918,26.064257 196.68238,25.851467 C 196.75331,25.620947 196.8863,25.443627 197.08135,25.319497 C 197.2764,25.195387 197.48919,25.168787 197.71971,25.239707 C 197.95022,25.292907 198.12754,25.425897 198.25167,25.638677 C 198.42899,25.940127 198.6595,26.197247 198.94323,26.410027 C 199.22693,26.605087 199.54611,26.738077 199.90076,26.808997 C 200.62777,26.950857 201.28385,26.800137 201.86902,26.356827"
       id="path2593" />
  </g>
</svg>
